
<svg xmlns="http://www.w3.org/2000/svg" version="1.0" viewBox="0 0 1686 449">
  <path fill="#fff"
    d="M1397.3 49.5c-7.9 2.2-12.4 4.8-17.1 9.8-13.7 14.9-9.5 36.4 8.9 45.6 5.8 2.9 10.9 4.2 28.9 7.5 8.8 1.6 12.5 3.5 15 7.9 2.1 3.7.4 7.5-4.5 10.1-5.3 2.8-22.2 3-27.2.4-4.3-2.4-7.2-6.4-7.9-11l-.7-3.8h-21l.7 5.7c1 8.9 5.7 17.6 12.4 22.9 9.1 7.1 14.5 8.8 29.2 8.8 17.5.1 25-2.2 32.9-10.2 6.5-6.5 8.1-10.6 8.1-20.3 0-7.6-2.2-12.9-7.6-18.9-6.4-7-17-11.4-34.2-13.9-12.8-2-19.2-5.8-19.2-11.6 0-6.1 6.9-9.4 19.5-9.4 12-.1 18.9 3.7 20.4 11.1l.7 3.3 10.3.3 10.4.3-.6-5.4c-1.2-11.5-8.7-21.5-20.5-27-6.2-2.9-7.6-3.2-19.2-3.4-8.7-.2-14.1.2-17.7 1.2m123.2-.1c-7.7 1.9-12.6 4.6-17.6 9.6-5.3 5.3-7.9 11.8-7.9 19.8 0 7.9 1.8 12.8 6.8 18.4 6.7 7.3 16.7 11.8 31.2 13.8 16.6 2.3 23 5.7 23 12.4 0 2.5-.7 4-2.6 5.5-5.9 4.6-22.7 5.3-30.1 1.1-4.6-2.5-6.4-5.1-7.2-10l-.6-3.5-10.4-.3-10.4-.3.5 6.3c.7 8.2 4.3 15.2 10.7 21 8.3 7.4 17.8 10.8 30.4 10.8 27.2 0 43.4-13.1 41.3-33.2-1.7-17-14-26.2-40.1-30.3-12.1-1.9-18.1-4.6-20.1-8.9-3.4-7 2.6-11.8 15.9-12.4 4.4-.2 9.7.1 12.2.8 5.4 1.5 10.2 6.1 11.1 10.6l.6 3.4h21l-.7-4.8c-1.8-12.4-10.8-23.8-22.3-28.3-7-2.8-26.6-3.6-34.7-1.5M439 103v51h71v-22h-47v-18h40V92h-40V74h47V52h-71zm81-.1V154h24v-33h11.6l10.8 16.5 10.8 16.5H604l-10.9-17.2-10.9-17.3 4.8-2.7c10.6-6.1 17-17.2 17-29.8 0-10.4-2.8-17.1-10.4-24.5-9.7-9.5-10.8-9.8-44.8-10.3l-28.8-.4zm56.1-27.4c6.4 3.4 8.7 12 4.9 18.3-3.2 5.2-6.9 6.2-23 6.2h-14V74h14.5c11.2 0 15.3.4 17.6 1.5M681 78c0 14.3-.2 26-.5 26s-15.1-11.2-32.8-24.8C630 65.5 614.9 54 614.3 53.6c-1-.6-1.3 9.7-1.3 49.8V154h24l.2-25 .3-25.1 33.3 24.6c18.3 13.5 33.5 24.5 33.8 24.5.2 0 .4-22.7.4-50.5V52h-24zm163.7-25.4c-.4.4-.7 23.4-.7 51.1V154h24l.2-16.3.3-16.2h11.9l10.8 16.2L902 154h13c7.1 0 13-.2 13-.5s-4.2-7.2-9.4-15.4c-13.1-20.7-12.4-18.5-7.2-21.1 9-4.3 16.3-15.8 17.3-27.1 1.4-15.5-8.9-31.3-23.5-36-4.2-1.4-59.2-2.5-60.5-1.3m55.6 22.8c9 3.7 9.7 18.1 1 22.7-1.9 1-6.6 1.4-17.7 1.4h-15.1l-.3-12.8-.3-12.7h14.6c10 0 15.6.4 17.8 1.4M1049 103v51.1l30.3-.3 30.2-.3 6-2.8c7-3.3 11.8-7.5 14.8-13.2 1.8-3.3 2.2-5.6 2.2-14 0-8.9-.3-10.6-2.8-15.7-1.5-3.1-4.2-6.9-5.9-8.3l-3-2.5 2.3-4.8c3.1-6.4 3.2-16.9.3-23.3-2.9-6.2-8.5-11.4-15.3-14.1-5.2-2.1-7.4-2.3-32.3-2.6l-26.8-.3zm52.1-30.3c2.9 1.7 5.9 6.7 5.9 9.8s-3 8.1-5.9 9.8c-2.3 1.4-5.4 1.7-15.5 1.7H1073V71h12.6c10.1 0 13.2.3 15.5 1.7m6.3 40.7c4.7 1.9 6.6 5.1 6.6 10.9 0 4.2-.5 5.3-3.1 7.8l-3.1 2.9H1073v-23h15.5c11.1 0 16.5.4 18.9 1.4M1463 103v51h24V52h-24zm-1350 .4V154h24l.2-28.4.3-28.4 14.4 9.4c13.2 8.5 14.7 9.3 16.5 8 9.2-5.9 27.7-17.6 28.1-17.6.3 0 .5 12.8.5 28.5V154h24v-50.5c0-27.8-.2-50.5-.5-50.5s-12.4 7.6-26.9 17c-14.6 9.3-26.7 17-27 17s-11.9-7.3-25.8-16.3-25.9-16.7-26.5-17.1c-1-.6-1.3 9.7-1.3 49.8m153.7-48.9c-8.7 2.4-15.9 6.7-22.7 13.4-16.6 16.7-20.5 39.8-10.2 60.9 3.4 7.1 15 19.1 21.7 22.5 15.3 7.7 35.5 7.7 49.5.1 11.3-6.2 21.2-18.1 25.1-30.3 3-9.3 2.9-23.2 0-32.1-5.7-16.8-19.8-30.1-36.6-34.5-7.1-1.8-20.2-1.8-26.8 0m26.4 22.7c6.5 2.7 14.2 11.1 16.4 17.9 2.3 6.8 1.7 17.8-1.3 23.6-6.7 13.1-22.5 20-36.5 15.9-7.3-2.1-15.1-8.5-18.6-15.1-3.4-6.5-4.2-18.4-1.7-25 6.5-16.8 25-24.5 41.7-17.3m46.9 26.4v50.5l25.8-.3c24-.3 26.1-.5 31.4-2.6 12.1-4.9 24.1-16.9 28.9-29.1 2.7-7.1 3.7-22.5 1.9-30.2-4.3-18.1-21.2-34.6-38.9-37.9-2.9-.5-15.2-1-27.2-1H340zm48.2-26c18.3 6.2 24 31 10.5 45.3-1.8 1.8-5.4 4.4-8.2 5.7-4.3 2-6.5 2.4-15.7 2.4H364V76h9.8c6.3 0 11.5.6 14.4 1.6m393.7-22.4c-.7 1.2-11.9 22.1-24.9 46.3s-24.7 45.9-25.9 48.2L729 154h27.6l3.4-7 3.4-7H803l3.5 7 3.5 7h13.5c7.4 0 13.5-.3 13.5-.6 0-.5-52.8-99.3-53.6-100.2-.1-.2-.8.7-1.5 2M790 115l3 6h-9.5c-5.2 0-9.5-.2-9.5-.5 0-.9 7.1-14.9 8.3-16.3 1.1-1.4 2.5.5 7.7 10.8m176.5-17.8c-13.1 24.4-25.4 47.1-27.3 50.5l-3.4 6.3h27.8l3.4-7 3.4-7h39.6l3.5 7 3.5 7h27.8l-27-50.3c-14.8-27.6-27.1-50.3-27.3-50.5-.1-.1-10.9 19.7-24 44m29 14.8 4.5 9h-9.5c-5.2 0-9.5-.3-9.5-.6 0-.9 9.1-17.4 9.6-17.4.2 0 2.4 4 4.9 9m224.6-57.4c-16.5 4.4-30.6 17.9-36.1 34.4-1.7 4.9-2.2 8.9-2.2 16 0 15.8 4.7 26.8 16.1 38 10.1 9.8 20.9 14 36.1 14s25.8-4.5 36.5-15.4c13.2-13.5 18.2-30.6 14-48.5-4.4-18.3-19.4-33.8-37.6-38.6-6.8-1.9-19.8-1.8-26.8.1m23.8 21.5c6.6 2 13.2 7.7 16.8 14.8 2.8 5.4 3.3 7.3 3.3 13.5 0 4-.7 9.3-1.6 11.9-2.1 6.3-8.3 13-15.2 16.4-4.8 2.4-6.9 2.8-13.7 2.7-6.6 0-8.9-.5-13-2.6-11.1-5.7-17.5-15.9-17.5-27.7 0-8 2.4-14.2 7.7-20.1 8.9-9.9 20-12.9 33.2-8.9m58.6 21.1c-13.1 24.4-25.4 47.1-27.3 50.5l-3.4 6.3h27.8l3.4-7 3.4-7h39.6l3.5 7 3.5 7h27.8l-27-50.3c-14.8-27.6-27.1-50.3-27.3-50.5-.1-.1-10.9 19.7-24 44m29 14.8 4.5 9h-9.5c-5.2 0-9.5-.3-9.5-.6 0-.9 9.1-17.4 9.6-17.4.2 0 2.4 4 4.9 9M624 222.4c-7.2 1.6-10.9 3.6-15.3 8.5-7.9 8.7-7.5 22.4.9 30.3 4.6 4.3 13.1 7.6 23.9 9.3 13.8 2.2 18.5 5.2 17.1 10.8-1 4-5.7 5.9-14.5 6.1-9.7.1-13.9-2-16.1-8.2l-1.4-4.2h-15.9l.6 5.1c1.8 15.4 16.6 25 36.5 23.6 7.1-.5 9.9-1.2 15.2-3.9 8.7-4.4 12.3-10.1 12.4-19.1.1-13.7-10.1-23-27.9-25.7-15.1-2.2-20-4.9-19.3-10.6.2-2.2 1.2-3.4 4.2-4.8 4.6-2.2 15.8-2.6 19.6-.6 4.2 2.1 7 5.2 7 7.7 0 2.2.3 2.3 8.4 2.3h8.5l-.6-3.8c-.9-5.7-3-9.8-7-14.3-7.8-8.6-21.4-11.8-36.3-8.5m461.1-.4c-6.5 1.4-14.2 6.2-17.6 10.9-2.3 3.3-3 5.5-3.3 10.5-.5 8.2.9 12.2 6 17.4 4.9 5 11.2 7.5 24 9.7 14.2 2.5 18.8 5.4 17.3 11.2-.8 3.4-6.5 5.6-15 5.6-10 .1-16.5-3.9-16.5-10 0-2.2-.3-2.3-8-2.3h-8v3.1c0 13.4 12.1 24.4 28.4 25.6 13.1 1 23.9-2.2 30.3-8.9 4.1-4.2 5.3-7.6 5.3-14.5 0-14.4-9.2-22-31.1-25.8-10.7-1.9-14.6-3.6-15.9-7.1-1.3-3.3.1-5.9 4.2-8 4.2-2.2 16.4-2.2 20.6 0 3.5 1.8 6.2 5.2 6.2 7.8 0 1.6 1 1.8 8.1 1.8h8.2l-.7-4.7c-1.2-9.1-8.4-17.6-17.5-20.9-5.5-1.9-18.9-2.7-25-1.4m155.3 1.3c-6.8 1.8-13.7 5.9-19.1 11.6-19.2 20-12.8 53 12.5 64.9 5.1 2.4 6.9 2.7 16.7 2.7s11.6-.3 16.5-2.6c3-1.5 6.4-3.4 7.5-4.2 1.9-1.5 1.8-1.7-3.8-7.5l-5.8-5.9-3.6 1.8c-11.6 5.9-26.7 1-32.2-10.4-2.7-5.6-2.8-15.5-.2-21.3 2.3-5.1 9.3-11.1 14.5-12.5 5.3-1.4 13.1-.7 17.9 1.6l3.9 1.8 5.6-5.7 5.7-5.7-3-2.5c-7.2-5.9-22.7-8.7-33.1-6.1M112 264.5V304h18v-30.9l11.3-.3 11.2-.3.3-8.3.3-8.2H130v-14h30v-17h-48zm81.2-38.4c-10.8 2.1-23 12-27.9 22.6-11.3 24.5 3.9 53.1 30.6 57.4 26.8 4.3 51.1-20.4 46.2-46.9-4.3-23.2-25.7-37.7-48.9-33.1m17.5 17.4c6.1 2.6 10.4 6.5 12.9 11.9 6.3 13.5-.3 28.6-14.5 33.4-8.4 2.9-18.6-.2-25.3-7.6-10.9-12.1-5.6-31.9 10.2-38.1 3.8-1.5 12.6-1.3 16.7.4m38.3 21V304h18v-25h10l8.2 12.5 8.3 12.4 10.3.1c8 0 10.2-.3 9.6-1.3-.4-.6-4.1-6.4-8.1-12.8s-7.3-12.1-7.3-12.6c0-.6 1.3-1.6 2.9-2.2 7.4-3.1 13.4-13.5 13.4-23.6 0-7.7-2.7-13.9-8.2-19.3-6.7-6.5-10.2-7.2-35.3-7.2H249zm46.1-19.6c3.3 3.3 3.8 7.5 1.4 12-2 4-6.1 5.1-18.6 5.1H267v-20h12.6c12.5 0 12.6 0 15.5 2.9m56.9 19.6V304h19v-79h-19zm77-19.5c0 11-.3 20-.6 20s-12-8.8-25.9-19.5c-14-10.7-25.6-19.5-25.9-19.5s-.6 17.5-.6 39v39h19v-19c0-10.5.3-19 .6-19s11.4 8 24.7 17.7c13.2 9.8 24.6 18.2 25.4 18.6 1.1.7 1.3-6.1 1.3-38.3v-39h-18zm26.2-19.2c2.1 5.3 41.5 76.9 42 76.4.4-.4 8.2-14.7 17.3-31.7 9.2-17.1 18.5-34.3 20.7-38.3l3.9-7.2h-21.6l-10 19.5C502 255.2 497.3 264 497 264s-5-8.7-10.6-19.3l-10.1-19.2-10.8-.3c-5.9-.1-10.5.1-10.3.6m88.8 38.7V304h55v-17h-36v-14h31v-17h-31v-14h36v-17h-55zM675 234v9h21v61h19v-61h20v-18h-60zm67 30.4V304h19v-22.1c0-12.1.4-21.9.8-21.7.5.1 5.6 3.4 11.5 7.2l10.7 6.8 10.3-6.5c5.6-3.6 11-6.9 12-7.3 1.6-.6 1.7 1 1.7 21.5V304h18v-39c0-21.5-.3-39-.6-39-.4 0-9.8 5.9-21 13.1l-20.3 13-18.3-11.8c-10.1-6.6-19.5-12.7-21-13.7l-2.8-1.8zm92 .1V304h55v-17h-37v-14h31v-17h-31v-14h37v-17h-55zM949 245c0 11-.3 20-.6 20s-12-8.8-25.9-19.5c-14-10.7-25.6-19.5-25.9-19.5s-.6 17.5-.6 39v39h19v-19c0-10.5.3-19 .6-19s11.4 8 24.7 17.7c13.2 9.8 24.6 18.2 25.4 18.6 1.1.7 1.3-6.1 1.3-38.3v-39h-18zm25-11v9h21v61h19v-61h20v-18h-60zm162 30.4V304h19v-24.7l13.6-.6c11.9-.5 14.2-.9 18.9-3.2 16.2-7.9 19.5-30.7 6.3-43.1-7-6.7-7.9-6.9-34-7.2l-23.8-.3zm45.2-21.3c2.7 1.4 5.1 7.4 4.3 10.9-.3 1.5-1.7 3.8-3.1 5.1-2.4 2.2-3.5 2.4-15 2.7l-12.4.4V242h12.1c6.7 0 12.9.5 14.1 1.1M138 386.5c0 14 .2 16.5 1.5 16.5 1.2 0 1.5-1.5 1.5-7.4 0-6.6.3-7.8 2.6-10.5 1.9-2.3 3.4-3.1 5.8-3.1 4.9 0 5.6 1.4 5.6 11.7 0 7.6.3 9.3 1.5 9.3s1.5-1.8 1.5-9.9c0-9.6-.1-10-2.6-12-3.8-3-8-2.7-11.5.8l-2.9 2.9v-7.4c0-5.9-.3-7.4-1.5-7.4-1.3 0-1.5 2.5-1.5 16.5m142 0c0 14 .2 16.5 1.5 16.5 1.2 0 1.5-1.3 1.5-6 0-9.9 3.2-15 9.4-15 4.5 0 5.6 2.3 5.6 12.1 0 7.2.3 8.9 1.5 8.9s1.5-1.6 1.5-8.8c0-9.8-1.2-13.1-5.3-14.5-3.8-1.2-7.1-.2-10.2 3.1l-2.5 2.7v-7.8c0-6.2-.3-7.7-1.5-7.7-1.3 0-1.5 2.5-1.5 16.5m94-14c0 1.8.5 2.5 2 2.5s2-.7 2-2.5-.5-2.5-2-2.5-2 .7-2 2.5m25 2c0 4.3-.1 4.5-3 4.5q-3 0-3 1.5t3 1.5h3v8.4c0 8.2.1 8.5 3.2 11.1 2.6 2.2 3.9 2.6 6.6 2.1 3.9-.6 6.8-2.8 7.5-5.7.7-2.7-1.1-2.4-3.5.6-1.3 1.6-2.9 2.5-4.8 2.5-4.8 0-6-2.2-6-11.1V382h5c3.8 0 5-.4 5-1.5s-1.2-1.5-5-1.5h-5v-4.5c0-3.3-.4-4.5-1.5-4.5s-1.5 1.2-1.5 4.5m228 0c0 4.3-.1 4.5-3 4.5q-3 0-3 1.5t3 1.5h3v8.4c0 8.2.1 8.5 3.2 11.1 2.6 2.2 3.9 2.6 6.6 2.1 3.9-.6 6.8-2.8 7.5-5.7.7-2.7-1.1-2.4-3.5.6-1.3 1.6-2.9 2.5-4.8 2.5-4.8 0-6-2.2-6-11.1V382h5c3.8 0 5-.4 5-1.5s-1.2-1.5-5-1.5h-5v-4.5c0-3.3-.4-4.5-1.5-4.5s-1.5 1.2-1.5 4.5m151-3c0 .9.9 1.5 2.5 1.5 2.3 0 2.5.4 2.5 4.1 0 3.5-.3 4-1.7 3.4-6.9-2.6-13-.7-15.6 4.8-3.3 6.8-1 14.9 4.9 17.3 4.2 1.8 6.2 1.7 9.7 0 1.5-.8 2.7-1.1 2.7-.5 0 .5.7.9 1.5.9 1.3 0 1.5-2.5 1.5-16.5V370h-4c-2.9 0-4 .4-4 1.5m2.8 12.1c1.9 1.3 2.2 2.4 2.2 7.9s-.3 6.6-2.2 7.9c-2.3 1.7-6.4 2.1-9.3 1-2.1-.8-4.5-5.6-4.5-8.9 0-3.1 2.4-8.1 4.2-8.8 2.7-1.1 7.4-.6 9.6.9M888 372.5c0 1.8.5 2.5 2 2.5s2-.7 2-2.5-.5-2.5-2-2.5-2 .7-2 2.5m24 2c0 4.1-.2 4.5-2.5 4.5-1.6 0-2.5.6-2.5 1.5s.9 1.5 2.5 1.5c2.5 0 2.5.1 2.5 7.9 0 6.8.3 8.4 2.3 10.6 1.3 1.5 3.7 2.8 5.9 3.2 3.2.5 4.1.1 6.8-2.5 3.3-3.3 3.8-5.2 1.5-5.2-.8 0-1.5.7-1.5 1.5 0 1.8-3.1 3.5-6.3 3.5-4.3 0-5.7-2.8-5.7-11.3V382h5c3.8 0 5-.4 5-1.5s-1.2-1.5-5-1.5h-5v-4.5c0-3.3-.4-4.5-1.5-4.5s-1.5 1.2-1.5 4.5m-804 5.7c0 .7 1 6.1 2.1 12 1.8 8.8 2.5 10.8 3.9 10.8s2-1.5 3-6.8c2-10.4 2.6-11.5 3.8-6.7.6 2.2 1.4 6 1.8 8.3.6 4 2.6 6.3 4.1 4.9.3-.3 1.4-4.8 2.4-9.9s2.1-10.3 2.4-11.6c.4-1.5.1-2.2-.9-2.2-1.4 0-2.2 2.7-4.2 14.3-.9 5-1.9 3.7-3.3-4.3-1.7-8.9-2-10-3.5-10-.8 0-1.8 2.4-2.5 6.2-2.1 11.2-2.3 11.8-3 11.4-.4-.3-1.3-4.4-2-9.1-.9-6-1.7-8.5-2.7-8.5-.8 0-1.4.6-1.4 1.2m63.4.2c-4.1 1.8-6.8 7.6-6.1 12.9.7 4.8 4.8 9.4 9.3 10.3 3.7.7 9.6-1 11.5-3.2 1.9-2.3.1-3-3-1.1-4.7 2.8-9.5 2.2-12.5-1.4-4.5-5.3-3.8-5.9 7.4-5.9h10v-3c0-7-9.3-11.9-16.6-8.6m11.3 3.8c4.2 3.9 3.1 4.8-6.2 4.8-9.2 0-10-.6-6-4.5 3.2-3.3 8.9-3.4 12.2-.3m11.3-3.7c0 .9.9 1.5 2.5 1.5 2.5 0 2.5.1 2.5 9s0 9-2.5 9c-1.6 0-2.5.6-2.5 1.5 0 1.2 1.4 1.5 6.5 1.5s6.5-.3 6.5-1.5c0-1-1-1.5-2.6-1.5-2.6 0-2.6 0-2.2-6.6.4-5.8.8-7 3.2-9 1.9-1.7 3.9-2.4 6.7-2.4s3.9-.4 3.6-1.3c-.2-.7-2.1-1.2-4.7-1.1-3.4.1-4.8.7-6.7 2.8l-2.3 2.7v-3c0-2.9-.2-3.1-4-3.1-2.9 0-4 .4-4 1.5m34.4-.1c-4.1 1.8-6.8 7.6-6.1 12.9.7 4.8 4.8 9.4 9.3 10.3 3.7.7 9.6-1 11.5-3.2 1.9-2.3.1-3-3-1.1-4.7 2.8-9.5 2.2-12.5-1.4-4.5-5.3-3.8-5.9 7.4-5.9h10v-3c0-7-9.3-11.9-16.6-8.6m11.3 3.8c4.2 3.9 3.1 4.8-6.2 4.8-9.2 0-10-.6-6-4.5 3.2-3.3 8.9-3.4 12.2-.3m74.3-3.4c-1.9.9-4 2.8-4.7 4.2-1.9 3.7-1.6 10.1.6 13.6 3.4 5.6 13.5 7 17.6 2.4 2.4-2.6 1.3-3.7-1.7-1.6-3.5 2.5-9.4 2.1-12.3-.9-1.4-1.3-2.5-3.3-2.5-4.5 0-1.9.6-2 10-2s10-.1 10-2c0-3.7-3-8.1-6.5-9.6-4.5-1.8-6.3-1.8-10.5.4m11.5 3.7c4 3.9 3.2 4.5-6 4.5-9.4 0-10.7-1.1-5.9-4.9 3.7-2.9 8.9-2.7 11.9.4m10.5-4q0 1.5 3 1.5h3v18h-3q-3 0-3 1.5c0 1.2 1.4 1.5 7 1.5s7-.3 7-1.5c0-.9-.9-1.5-2.5-1.5-2.4 0-2.5-.3-2.5-5.9 0-4.9.4-6.5 2.6-9 2.2-2.6 3.3-3.1 7-3.1 4.4 0 5.8-1.2 2.8-2.4-3.4-1.3-6.7-.5-9.5 2.3l-2.9 2.9v-2.9c0-2.8-.2-2.9-4.5-2.9-3.3 0-4.5.4-4.5 1.5m33 0q0 1.5 3 1.5h3v18h-3q-3 0-3 1.5c0 1.2 1.4 1.5 7 1.5s7-.3 7-1.5c0-.9-.9-1.5-2.5-1.5H378v-21h-4.5c-3.3 0-4.5.4-4.5 1.5m58-.2c-3.3 1.1-4.2 3.5-1 2.9 7.7-1.6 10.8-1.4 12.9.7 3.2 3.2 2.4 5.7-1.7 5.3-8.7-.9-15.2 2.4-15.2 7.8 0 3.6 2.1 5.7 6.4 6.5 2.9.6 6.1-.3 11.9-3.3.4-.2.7.3.7 1.2s.7 1.6 1.5 1.6c1.2 0 1.5-1.5 1.5-7.9 0-10-1-12.8-5.5-14.6-4.1-1.8-6.8-1.8-11.5-.2m14 13.3c0 .8-1.3 2.9-2.9 4.5-2.2 2.2-3.9 2.9-6.8 2.9-4.4 0-6.3-1.4-6.3-4.5 0-2.9 3.3-4.4 10.3-4.4 4.5-.1 5.7.2 5.7 1.5m15.6-13.1c-3.8 2-5.3 4.2-6.1 8.6-.9 5.4 1.6 10.6 5.9 12.4 4.4 1.9 6.4 1.9 9.9.1 2.6-1.5 2.7-1.4 2.7 1.4 0 1.8-.8 3.4-2.2 4.4-2.8 2-8.8 2.1-11.4.1-2.4-1.8-3.4-1.9-3.4-.1 0 2.6 4.2 4.6 9.8 4.6 4.4 0 5.7-.4 7.7-2.6 2.4-2.6 2.5-3.2 2.5-16.5 0-11.3-.3-13.9-1.4-13.9-.8 0-1.6.5-1.8 1.1-.2.7-1.2.7-3.1 0-3.8-1.5-5.7-1.4-9.1.4m10.7 2.9c1.3 1 1.7 2.8 1.7 7.6s-.4 6.6-1.7 7.6c-2.4 1.8-8.4 1.7-11-.1-4.2-3-3.8-12.9.6-15.5 2.3-1.4 8.3-1.1 10.4.4m17.7-2.6c-1.9.9-4 2.8-4.7 4.2-1.9 3.7-1.6 10.1.6 13.6 3.4 5.6 13.5 7 17.6 2.4 2.4-2.6 1.3-3.7-1.7-1.6-3.5 2.5-9.4 2.1-12.3-.9-1.4-1.3-2.5-3.3-2.5-4.5 0-1.9.6-2 10-2s10-.1 10-2c0-3.7-3-8.1-6.5-9.6-4.5-1.8-6.3-1.8-10.5.4m11.5 3.7c4 3.9 3.2 4.5-6 4.5-9.4 0-10.7-1.1-5.9-4.9 3.7-2.9 8.9-2.7 11.9.4M536 391c0 10 .3 12 1.5 12s1.5-1.7 1.5-9.3c0-9.5.8-11.7 4.1-11.7 2.4 0 2.9 2 2.9 12.1 0 7.1.3 8.9 1.5 8.9 1.1 0 1.5-2 1.7-9.6.3-10.1 1.4-12.5 5.2-11.1 1.3.5 1.6 2.3 1.6 10.7 0 8.2.3 10 1.5 10s1.5-1.8 1.5-10c0-8.7-.3-10.3-2-12-2.3-2.3-3.9-2.5-6.5-.6-1.6 1.1-2.2 1.1-4.6-.3-2.6-1.4-2.9-1.4-4.8.3s-2.1 1.7-2.1.3c0-1-.7-1.7-1.5-1.7-1.2 0-1.5 2-1.5 12m35.5-11.1c-1.1.5-3.1 2.1-4.4 3.5-3.1 3.3-3.5 10.8-.8 14.9 3.8 5.9 12.4 7.2 17.9 2.8 3.1-2.6 1.5-3.9-2.1-1.8-5.8 3.4-12.9.9-14.6-5.1-.6-2.2-.6-2.2 10-2.2H588l-.6-2.8c-.9-3.7-1.9-5.4-4.2-7.5s-8.7-3.1-11.7-1.8M582 384c4 4 2.8 5-6.5 5h-8.6l1.6-2.9c1.7-3.4 2.7-3.9 7.8-4 2.4-.1 4.4.6 5.7 1.9m17-3.2c-1.9.9-4 2.8-4.7 4.2-1.9 3.7-1.6 10.1.6 13.6 3.4 5.6 13.5 7 17.6 2.4 2.4-2.6 1.3-3.7-1.7-1.6-3.5 2.5-9.4 2.1-12.3-.9-1.4-1.3-2.5-3.3-2.5-4.5 0-1.9.6-2 10-2s10-.1 10-2c0-3.7-3-8.1-6.5-9.6-4.5-1.8-6.3-1.8-10.5.4m11.5 3.7c4 3.9 3.2 4.5-6 4.5-9.4 0-10.7-1.1-5.9-4.9 3.7-2.9 8.9-2.7 11.9.4m45.6-4.6c-1.3.3-3.3 1.8-4.4 3.3-1.9 2.5-1.9 2.8-.4 5.2 1.6 2.4 3 3 13.2 5.2 4.5 1 5.9 3.9 2.9 6.1-2.4 1.8-9.8 1.7-13.4-.2-1.8-.9-3.1-1.1-3.5-.5-1.1 1.7.3 2.8 5.5 4 9.1 2.2 16-.6 16-6.4 0-4.4-1.4-5.4-10.1-7.2-8.8-1.8-9.9-2.6-7.4-5.4 2-2.2 8.4-2.7 12.9-1 4.1 1.5 4.2-.8.2-2.5-3.7-1.6-7.4-1.8-11.5-.6M707 391c0 10 .3 12 1.5 12s1.5-1.6 1.5-8.8c0-9.5 1.2-12.7 4.6-12 1.7.3 1.9 1.4 2.2 10.6.2 8.2.6 10.2 1.7 10.2 1.2 0 1.5-1.6 1.5-7.9 0-9.9 1.1-13.4 4.3-12.9 2.1.3 2.2.8 2.5 10.5.2 8.3.6 10.3 1.7 10.3 1.2 0 1.5-1.9 1.5-10.3 0-8.8-.3-10.6-1.8-12-2.3-2.1-4.1-2.1-6.4 0-1.7 1.5-1.9 1.5-3.6 0-1-1-2.5-1.7-3.2-1.7s-2.2.7-3.2 1.7c-1.7 1.5-1.8 1.5-1.8 0 0-1-.7-1.7-1.5-1.7-1.2 0-1.5 2-1.5 12m35.5-11c-1.1.4-3.1 2-4.5 3.5-2 2.1-2.5 3.7-2.5 8 0 4.6.4 5.8 2.9 8.4 3.5 3.7 8.1 4.7 13.1 3.1 9.5-3.1 10.1-18.7 1-22.6-3.8-1.6-7-1.7-10-.4m11 4.5c1.9 1.8 2.5 3.5 2.5 7 0 6-3.2 9.5-8.7 9.5-4.2-.1-6.3-1.3-8.1-4.7-2-3.6-1.4-7.9 1.4-11.2 3.4-4.1 9.2-4.4 12.9-.6m44.8-3.5c-1.7 1-3.7 2.9-4.3 4-1.7 3.2-1.4 10.7.5 13.6 3.6 5.5 13.5 6.8 17.9 2.5 2.6-2.6 1.4-3.8-1.6-1.7-3.5 2.5-9.4 2.1-12.3-.9-1.4-1.3-2.5-3.3-2.5-4.5 0-1.9.6-2 10-2 11.1 0 11.2-.1 8.5-6.6-2.4-5.9-10.3-8.1-16.2-4.4m12.2 3.5c4 3.9 3.2 4.5-6 4.5-9.4 0-10.7-1.1-5.9-4.9 3.7-2.9 8.9-2.7 11.9.4m10.5-4c0 .9.9 1.5 2.5 1.5 2.5 0 2.5.1 2.5 9s0 9-2.5 9c-1.6 0-2.5.6-2.5 1.5 0 1.2 1.4 1.5 7 1.5s7-.3 7-1.5q0-1.5-3-1.5c-2.7 0-3-.3-3-3.4 0-9.4 3.6-14.6 10.1-14.6 4.5 0 6.1-1.7 2.4-2.6-3.6-.9-7.1.2-10 3.4l-2.5 2.7v-3.3c0-3.1-.2-3.2-4-3.2-2.9 0-4 .4-4 1.5m30 10.5c0 10 .3 12 1.5 12s1.5-1.5 1.5-7.4c0-6.6.3-7.8 2.6-10.5 1.9-2.3 3.4-3.1 5.8-3.1 4.9 0 5.6 1.4 5.6 11.7 0 7.6.3 9.3 1.5 9.3s1.5-1.8 1.5-9.9c0-9.6-.1-10-2.6-12-3.8-3-8-2.7-11.5.8l-2.9 2.9v-2.9c0-1.9-.5-2.9-1.5-2.9-1.2 0-1.5 2-1.5 12m32-10.5c0 .9.9 1.5 2.5 1.5 2.5 0 2.5.1 2.5 9s0 9-2.5 9c-1.6 0-2.5.6-2.5 1.5 0 1.2 1.4 1.5 6.5 1.5s6.5-.3 6.5-1.5c0-.9-.9-1.5-2.5-1.5H891v-21h-4c-2.9 0-4 .4-4 1.5m52-.7c0 .4 2.3 6.1 5 12.5 4.9 11.3 5 11.8 3.5 14.7-1.3 2.5-2.2 3-5 3-1.9 0-3.5.4-3.5 1 0 1.5 8.6 1.2 9.8-.3.6-.7 3.4-6.7 6.2-13.2 8.8-20.4 8.1-18.5 6.1-18.5-1.4 0-2.8 2.5-5.7 10-2.1 5.5-4.2 10-4.7 10-.4 0-1.2-1.2-1.7-2.6-4.2-10.8-7.4-17.4-8.6-17.4-.8 0-1.4.4-1.4.8"
  />
</svg>
