<svg
  width="279.7718449476818"
  height="279.0448059082031"
  viewBox="0 0 312.5 311.6879107782287"
  class="looka-1j8o68f"
>
  <g
    id="SvgjsG1095"
    featurekey="rootContainer"
    transform="matrix(2.8938654362463287,0,0,2.8938654362463287,-0.00346661711164234,-0.028938799252233225)"
    fill="white"
  >
    <g xmlns="http://www.w3.org/2000/svg" fill-rule="evenodd">
      <path></path>
      <path></path>
      <path></path>
      <path></path>
      <path></path>
      <path></path>
      <path></path>
      <path></path>
      <path></path>
      <path></path>
      <path></path>
      <path></path>
      <path></path>
      <path></path>
      <path></path>
      <path></path>
      <path></path>
      <path></path>
      <path></path>
      <path></path>
      <path></path>
      <path></path>
      <path></path>
      <path></path>
      <path></path>
      <path></path>
      <path></path>
      <path></path>
      <path></path>
      <path></path>
    </g>
  </g>
  <g
    id="SvgjsG1096"
    featurekey="symbolFeature-0"
    transform="matrix(0.6612282386168057,0,0,0.6612282386168057,123.35002045074535,93.69385880691597)"
    fill="white"
  >
    <circle
      xmlns="http://www.w3.org/2000/svg"
      cx="42.125"
      cy="19.337"
      r="9.916"
    ></circle>
    <circle
      xmlns="http://www.w3.org/2000/svg"
      cx="27.438"
      cy="63.042"
      r="4.958"
    ></circle>
    <circle
      xmlns="http://www.w3.org/2000/svg"
      cx="62.284"
      cy="87.752"
      r="4.958"
    ></circle>
    <circle
      xmlns="http://www.w3.org/2000/svg"
      cx="46.204"
      cy="33.938"
      r="4.462"
    ></circle>
    <circle
      xmlns="http://www.w3.org/2000/svg"
      cx="64.86"
      cy="59.99"
      r="5.356"
    ></circle>
    <path
      xmlns="http://www.w3.org/2000/svg"
      d="M74.019,19.736c2.416,0,4.487-1.398,5.505-3.418c-3.036-2.71-6.439-5.016-10.13-6.832c-0.959,1.089-1.561,2.503-1.561,4.068  C67.833,16.97,70.603,19.736,74.019,19.736z"
    ></path>
    <circle
      xmlns="http://www.w3.org/2000/svg"
      cx="62.615"
      cy="30.244"
      r="11.237"
    ></circle>
    <path
      xmlns="http://www.w3.org/2000/svg"
      d="M93.643,59.136c-0.273,1.32-0.608,2.617-0.996,3.893C93.2,61.829,93.546,60.519,93.643,59.136z"
    ></path>
    <path
      xmlns="http://www.w3.org/2000/svg"
      d="M82.447,47.098c-6.207,0-11.237,5.031-11.237,11.239c0,6.205,5.03,11.238,11.237,11.238c4.528,0,8.422-2.687,10.199-6.547  c0.388-1.275,0.723-2.572,0.996-3.893c0.019-0.265,0.041-0.528,0.041-0.799C93.684,52.129,88.652,47.098,82.447,47.098z"
    ></path>
    <path
      xmlns="http://www.w3.org/2000/svg"
      d="M17.748,33.007c0-3.719-2.476-6.828-5.855-7.863c-2.983,4.52-5.172,9.608-6.373,15.069c1.181,0.652,2.52,1.057,3.965,1.057  C14.047,41.27,17.748,37.571,17.748,33.007z"
    ></path>
    <circle
      xmlns="http://www.w3.org/2000/svg"
      cx="71.619"
      cy="76.304"
      r="8.263"
    ></circle>
    <path
      xmlns="http://www.w3.org/2000/svg"
      d="M58.373,17.711c4.198,0,7.6-3.403,7.6-7.602c0-0.8-0.157-1.554-0.386-2.278C61.562,6.293,57.26,5.321,52.776,5  c-1.233,1.353-2.005,3.135-2.005,5.109C50.771,14.308,54.173,17.711,58.373,17.711z"
    ></path>
    <path
      xmlns="http://www.w3.org/2000/svg"
      d="M13.703,69.904c4.197,0,7.6-3.403,7.6-7.602c0-4.196-3.403-7.602-7.6-7.602c-4.12,0-7.454,3.283-7.58,7.371  c0.479,1.719,1.053,3.397,1.726,5.027C9.243,68.799,11.333,69.904,13.703,69.904z"
    ></path>
    <circle
      xmlns="http://www.w3.org/2000/svg"
      cx="23.286"
      cy="52.574"
      r="4.481"
    ></circle>
    <path
      xmlns="http://www.w3.org/2000/svg"
      d="M39.335,88.411c0-2.474-2.007-4.48-4.48-4.48c-2.476,0-4.482,2.007-4.482,4.48c0,1.048,0.375,2,0.979,2.763  c1.395,0.615,2.826,1.164,4.292,1.638C37.739,92.438,39.335,90.616,39.335,88.411z"
    ></path>
    <circle
      xmlns="http://www.w3.org/2000/svg"
      cx="13.015"
      cy="47.207"
      r="5.802"
    ></circle>
    <circle
      xmlns="http://www.w3.org/2000/svg"
      cx="26.313"
      cy="30.271"
      r="7.603"
    ></circle>
    <path
      xmlns="http://www.w3.org/2000/svg"
      d="M62.137,71.661c-0.032-8.119-6.643-14.678-14.762-14.646c-8.122,0.032-14.68,6.64-14.646,14.76  c0.03,8.123,6.64,14.679,14.76,14.647C55.61,86.391,62.169,79.783,62.137,71.661z"
    ></path>
    <path
      xmlns="http://www.w3.org/2000/svg"
      d="M81.061,17.76c-3.272,3.114-5.316,7.506-5.298,12.381c0.038,9.399,7.686,16.989,17.085,16.952  c0.55-0.001,1.096-0.036,1.633-0.088C93.744,35.57,88.751,25.299,81.061,17.76z"
    ></path>
    <path
      xmlns="http://www.w3.org/2000/svg"
      d="M70.2,42.307c-2.465,0.01-4.453,2.015-4.444,4.48c0.01,2.462,2.015,4.453,4.48,4.445c2.463-0.011,4.451-2.018,4.442-4.483  C74.671,44.286,72.664,42.298,70.2,42.307z"
    ></path>
    <circle
      xmlns="http://www.w3.org/2000/svg"
      cx="23.67"
      cy="42.116"
      r="2.643"
    ></circle>
    <circle
      xmlns="http://www.w3.org/2000/svg"
      cx="37.26"
      cy="46.034"
      r="9.454"
    ></circle>
    <path
      xmlns="http://www.w3.org/2000/svg"
      d="M30.479,11.066c-0.002-0.646-0.07-1.278-0.196-1.886c-5.257,2.486-9.955,5.957-13.856,10.178  c1.373,0.766,2.952,1.206,4.635,1.199C26.284,20.536,30.5,16.285,30.479,11.066z"
    ></path>
    <path
      xmlns="http://www.w3.org/2000/svg"
      d="M31.842,78.716c-0.022-5.22-4.271-9.435-9.491-9.416c-4.465,0.019-8.185,3.132-9.16,7.292  c3.252,4.425,7.294,8.228,11.917,11.214C29.015,86.632,31.857,83.005,31.842,78.716z"
    ></path>
    <circle
      xmlns="http://www.w3.org/2000/svg"
      cx="55.339"
      cy="48.772"
      r="7.603"
    ></circle>
    <path
      xmlns="http://www.w3.org/2000/svg"
      d="M48.537,87.771c-3.811,0.016-6.958,2.778-7.604,6.402C43.715,94.709,46.585,95,49.522,95c2.28,0,4.52-0.173,6.71-0.5  C55.717,90.694,52.482,87.757,48.537,87.771z"
    ></path>
  </g>
  <g
    id="SvgjsG1097"
    featurekey="nameFeature-0"
    transform="matrix(0.41991572852104714,0,0,0.41991572852104714,54.800259168340546,172.2012425112647)"
    fill="white"
  >
    <path
      d="M24 11.428999999999998 l7.4286 0 l0 28.571 l-7.4286 0 l0 -16 l-5.0286 9.7143 l-3.7143 0 l-4.9714 -9.7143 l0 16 l-7.4286 0 l0 -28.571 l7.4286 0 l6.8571 12.971 z M57.99971428571428 11.428999999999998 l4.2857 4.2857 l0 20 l-4.2857 4.2857 l-16.571 0 l-4.2857 -4.2857 l0 -20 l4.2857 -4.2857 l16.571 0 z M54.85671428571429 33.7143 l0 -16 l-10.286 0 l0 16 l10.286 0 z M88.85685714285714 11.428999999999998 l4.2857 4.2857 l0 20 l-4.2857 4.2857 l-20.857 0 l0 -28.571 l20.857 0 z M85.71385714285714 33.7143 l0 -16 l-10.286 0 l0 16 l10.286 0 z M123.143 17.714 l-16.857 0 l0 4.8571 l14.571 0 l0 6.2857 l-14.571 0 l0 4.8571 l16.857 0 l0 6.2857 l-20 0 l-4.2857 -4.2857 l0 -24.286 l24.286 0 l0 6.2857 z M154.571 15.713999999999999 l0 10 l-4.2857 4.2857 l4.2857 6.5714 l0 3.4286 l-6.8571 0 l-5.9429 -9.7143 l-5.4857 0 l0 9.7143 l-7.4286 0 l0 -28.571 l21.429 0 z M147.143 24 l0 -6.2857 l-10.857 0 l0 6.2857 l10.857 0 z M177.99957142857141 11.428999999999998 l7.4286 0 l0 28.571 l-6.5714 0 l-11.143 -16 l0 16 l-7.4286 0 l0 -28.571 l6.5714 0 l11.143 15.886 l0 -15.886 z M205.42852857142856 40 l0 -24.286 l4.2857 -4.2857 l16.571 0 l4.2857 4.2857 l0 24.286 l-7.4286 0 l0 -8 l-10.286 0 l0 8 l-7.4286 0 z M212.85742857142856 25.714 l10.286 0 l0 -8 l-10.286 0 l0 8 z M261.9995714285714 15.713999999999999 l0 10 l-4.2857 4.2857 l4.2857 6.5714 l0 3.4286 l-6.8571 0 l-5.9429 -9.7143 l-5.4857 0 l0 9.7143 l-7.4286 0 l0 -28.571 l21.429 0 z M254.57157142857142 24 l0 -6.2857 l-10.857 0 l0 6.2857 l10.857 0 z M267.71424285714284 40 l0 -24.286 l4.2857 -4.2857 l16.571 0 l4.2857 4.2857 l0 24.286 l-7.4286 0 l0 -8 l-10.286 0 l0 8 l-7.4286 0 z M275.14314285714283 25.714 l10.286 0 l0 -8 l-10.286 0 l0 8 z M324.2852857142857 15.713999999999999 l0 6.9714 l-3.0286 3.0286 l3.0286 3.0286 l0 6.9714 l-4.2857 4.2857 l-21.429 0 l0 -28.571 l21.429 0 z M316.8572857142857 22.571 l0 -4.8571 l-10.857 0 l0 4.8571 l10.857 0 z M316.8572857142857 33.7143 l0 -4.8571 l-10.857 0 l0 4.8571 l10.857 0 z M365.1425714285714 11.428999999999998 l4.2857 4.2857 l0 20 l-4.2857 4.2857 l-16.571 0 l-4.2857 -4.2857 l0 -20 l4.2857 -4.2857 l16.571 0 z M361.9995714285714 33.7143 l0 -16 l-10.286 0 l0 16 l10.286 0 z M375.1428142857142 40 l0 -24.286 l4.2857 -4.2857 l16.571 0 l4.2857 4.2857 l0 24.286 l-7.4286 0 l0 -8 l-10.286 0 l0 8 l-7.4286 0 z M382.5717142857142 25.714 l10.286 0 l0 -8 l-10.286 0 l0 8 z M423.9998571428571 17.714 l-10.571 0 l0 4.8571 l14 0 l4.2857 4.2857 l0 8.8571 l-4.2857 4.2857 l-17.143 0 l-4.2857 -4.2857 l0 -4.2857 l5.4286 0 l2.2857 2.2857 l10.571 0 l0 -4.8571 l-14 0 l-4.2857 -4.2857 l0 -8.8571 l4.2857 -4.2857 l17.143 0 l4.2857 4.2857 l0 4.2857 l-5.4286 0 z M436.5714285714285 40 l0 -5.7143 l2.2857 0 l0 -17.143 l-2.2857 0 l0 -5.7143 l12 0 l0 5.7143 l-2.2857 0 l0 17.143 l2.2857 0 l0 5.7143 l-12 0 z M471.4284285714285 17.714 l-10.571 0 l0 4.8571 l14 0 l4.2857 4.2857 l0 8.8571 l-4.2857 4.2857 l-17.143 0 l-4.2857 -4.2857 l0 -4.2857 l5.4286 0 l2.2857 2.2857 l10.571 0 l0 -4.8571 l-14 0 l-4.2857 -4.2857 l0 -8.8571 l4.2857 -4.2857 l17.143 0 l4.2857 4.2857 l0 4.2857 l-5.4286 0 z"
      stroke="black"
      stroke-width="0.5"
    ></path>
  </g>
  <g
    id="SvgjsG1098"
    featurekey="sloganFeature-0"
    transform="matrix(0.3276299954719411,0,0,0.3276299954719411,75.7180042310105,205.1521667130554)"
    fill="white"
  >
    <path
      d="M14.16 10.2 c0.22 0 0.29 0.12 0.24 0.34 l-2.41 9.22 c-0.04 0.16 -0.2 0.24 -0.36 0.24 l-1.85 0 c-0.16 0 -0.31 -0.08 -0.36 -0.24 l-1.78 -7.01 l-1.8 7.01 c-0.04 0.16 -0.2 0.24 -0.36 0.24 l-1.85 0 c-0.16 0 -0.31 -0.08 -0.36 -0.24 l-2.39 -9.22 c-0.06 -0.22 0.02 -0.34 0.24 -0.34 l1.45 0 c0.16 0 0.32 0.08 0.36 0.24 l1.68 7.09 l1.9 -7.09 c0.05 -0.16 0.2 -0.24 0.36 -0.24 l1.52 0 c0.16 0 0.32 0.08 0.36 0.24 l1.91 7.09 l1.69 -7.09 c0.03 -0.16 0.19 -0.24 0.36 -0.24 l1.45 0 z M26.945 9.98 c2.09 0 3.54 1.42 3.54 4.04 l0 5.68 c0 0.18 -0.12 0.3 -0.3 0.3 l-1.56 0 c-0.18 0 -0.3 -0.12 -0.3 -0.3 l0 -5.36 c0 -1.67 -0.86 -2.37 -2.17 -2.37 c-1.67 0 -2.5 1.26 -2.68 1.87 l0 5.86 c0 0.18 -0.12 0.3 -0.3 0.3 l-1.56 0 c-0.18 0 -0.3 -0.12 -0.3 -0.3 l0 -13.4 c0 -0.18 0.12 -0.3 0.3 -0.3 l1.56 0 c0.18 0 0.3 0.12 0.3 0.3 l0 5.52 l0.16 0 c0.59 -0.94 1.66 -1.84 3.31 -1.84 z M42.78 9.98 c2.96 0 4.74 2.27 4.74 4.89 c0 0.74 -0.09 1.11 -0.65 1.11 l-6.99 0 c0.23 1.52 1.5 2.5 3.31 2.5 c1.05 0 1.78 -0.32 2.45 -0.83 c0.16 -0.12 0.28 -0.15 0.43 0 l0.66 0.66 c0.15 0.15 0.16 0.29 0 0.45 c-0.95 0.95 -2.19 1.5 -3.76 1.5 c-3.12 0 -5.19 -2.26 -5.19 -5.14 s2.07 -5.14 5 -5.14 z M42.79 11.83 c-1.53 0 -2.67 1 -2.89 2.59 l5.72 0 c-0.16 -1.57 -1.27 -2.59 -2.83 -2.59 z M60.625 9.98 c2.16 0 3.75 1.32 3.75 3.81 c0 0.19 -0.1 0.3 -0.29 0.32 l-1.56 0.22 c-0.19 0.03 -0.3 -0.08 -0.32 -0.27 c-0.09 -1.46 -0.99 -2.07 -2.27 -2.07 c-2.02 0 -2.96 1.69 -2.96 2.29 l0 5.42 c0 0.18 -0.12 0.3 -0.3 0.3 l-1.56 0 c-0.18 0 -0.3 -0.12 -0.3 -0.3 l0 -9.2 c0 -0.18 0.12 -0.3 0.3 -0.3 l1.48 0 c0.18 0 0.28 0.12 0.3 0.3 l0.08 1.32 l0.22 0 c0.64 -0.94 1.83 -1.84 3.43 -1.84 z M76.22 9.98 c2.96 0 4.74 2.27 4.74 4.89 c0 0.74 -0.09 1.11 -0.65 1.11 l-6.99 0 c0.23 1.52 1.5 2.5 3.31 2.5 c1.05 0 1.78 -0.32 2.45 -0.83 c0.16 -0.12 0.28 -0.15 0.43 0 l0.66 0.66 c0.15 0.15 0.16 0.29 0 0.45 c-0.95 0.95 -2.19 1.5 -3.76 1.5 c-3.12 0 -5.19 -2.26 -5.19 -5.14 s2.07 -5.14 5 -5.14 z M76.23 11.83 c-1.53 0 -2.67 1 -2.89 2.59 l5.72 0 c-0.16 -1.57 -1.27 -2.59 -2.83 -2.59 z M106.13000000000001 9.98 c2.09 0 3.54 1.42 3.54 4.04 l0 5.68 c0 0.18 -0.12 0.3 -0.3 0.3 l-1.56 0 c-0.18 0 -0.3 -0.12 -0.3 -0.3 l0 -5.36 c0 -1.67 -0.86 -2.37 -2.17 -2.37 c-1.67 0 -2.5 1.26 -2.68 1.87 l0 5.86 c0 0.18 -0.12 0.3 -0.3 0.3 l-1.56 0 c-0.18 0 -0.3 -0.12 -0.3 -0.3 l0 -13.4 c0 -0.18 0.12 -0.3 0.3 -0.3 l1.56 0 c0.18 0 0.3 0.12 0.3 0.3 l0 5.52 l0.16 0 c0.59 -0.94 1.66 -1.84 3.31 -1.84 z M121.965 9.98 c2.96 0 4.74 2.27 4.74 4.89 c0 0.74 -0.09 1.11 -0.65 1.11 l-6.99 0 c0.23 1.52 1.5 2.5 3.31 2.5 c1.05 0 1.78 -0.32 2.45 -0.83 c0.16 -0.12 0.28 -0.15 0.43 0 l0.66 0.66 c0.15 0.15 0.16 0.29 0 0.45 c-0.95 0.95 -2.19 1.5 -3.76 1.5 c-3.12 0 -5.19 -2.26 -5.19 -5.14 s2.07 -5.14 5 -5.14 z M121.97500000000001 11.83 c-1.53 0 -2.67 1 -2.89 2.59 l5.72 0 c-0.16 -1.57 -1.27 -2.59 -2.83 -2.59 z M139.81 9.98 c2.16 0 3.75 1.32 3.75 3.81 c0 0.19 -0.1 0.3 -0.29 0.32 l-1.56 0.22 c-0.19 0.03 -0.3 -0.08 -0.32 -0.27 c-0.09 -1.46 -0.99 -2.07 -2.27 -2.07 c-2.02 0 -2.96 1.69 -2.96 2.29 l0 5.42 c0 0.18 -0.12 0.3 -0.3 0.3 l-1.56 0 c-0.18 0 -0.3 -0.12 -0.3 -0.3 l0 -9.2 c0 -0.18 0.12 -0.3 0.3 -0.3 l1.48 0 c0.18 0 0.28 0.12 0.3 0.3 l0.08 1.32 l0.22 0 c0.64 -0.94 1.83 -1.84 3.43 -1.84 z M155.255 8.13 c-0.7 0 -1.25 -0.55 -1.25 -1.24 c0 -0.7 0.55 -1.25 1.25 -1.25 c0.69 0 1.24 0.55 1.24 1.25 c0 0.69 -0.55 1.24 -1.24 1.24 z M159.315 18.19 c0.18 0 0.3 0.12 0.3 0.3 l0 1.21 c0 0.18 -0.12 0.3 -0.3 0.3 l-8.61 0 c-0.18 0 -0.3 -0.12 -0.3 -0.3 l0 -1.21 c0 -0.18 0.12 -0.3 0.3 -0.3 l3.49 0 l0 -6.18 l-2.99 0 c-0.18 0 -0.3 -0.12 -0.3 -0.3 l0 -1.21 c0 -0.18 0.12 -0.3 0.3 -0.3 l4.85 0 c0.18 0 0.3 0.12 0.3 0.3 l0 7.69 l2.96 0 z M176.20000000000002 18.35 c0.11 0.13 0.13 0.28 0.02 0.41 c-0.42 0.52 -1.51 1.4 -3.3 1.4 c-2.05 0 -3.98 -0.76 -3.98 -3.97 l0 -4.18 l-2.48 0 c-0.18 0 -0.3 -0.12 -0.3 -0.3 l0 -1.21 c0 -0.18 0.12 -0.3 0.3 -0.3 l2.48 0 l0 -2.6 c0 -0.18 0.12 -0.3 0.3 -0.3 l1.56 0 c0.18 0 0.3 0.12 0.3 0.3 l0 2.6 l3.95 0 c0.18 0 0.3 0.12 0.3 0.3 l0 1.21 c0 0.18 -0.12 0.3 -0.3 0.3 l-3.95 0 l0 3.95 c0 1.87 1.08 2.26 2.19 2.26 c0.83 0 1.43 -0.36 1.82 -0.67 c0.14 -0.13 0.3 -0.12 0.42 0.02 z M192.85500000000002 18.21 c0.25 0.06 0.36 0.14 0.36 0.35 l0 1.19 c0 0.23 -0.22 0.32 -0.57 0.33 c-1.45 0.03 -2.13 -0.5 -2.13 -1.64 l-0.09 0 c-1.02 1.16 -2.74 1.8 -4.15 1.8 c-2.19 0 -3.33 -1.09 -3.33 -2.79 c0 -1.77 1.13 -2.67 3.36 -3 l2.33 -0.36 c0.83 -0.13 1.27 -0.24 1.39 -0.47 c-0.05 -1.36 -0.83 -1.8 -2.12 -1.8 c-1.27 0 -2.19 0.34 -2.34 1.35 c-0.02 0.14 -0.11 0.22 -0.29 0.22 l-1.49 0 c-0.18 0 -0.31 -0.1 -0.29 -0.3 c0.24 -2.33 1.98 -3.11 4.43 -3.11 c2.84 0 4.2 1.33 4.2 3.74 l0 3.67 c0 0.44 0.23 0.72 0.73 0.82 z M186.685 18.39 c1.11 0 2.28 -0.25 3.34 -1.31 l0 -2.01 c-0.11 0.23 -0.5 0.34 -1.25 0.46 l-2.1 0.33 c-1.18 0.19 -1.57 0.66 -1.57 1.32 c0 0.73 0.48 1.21 1.58 1.21 z M209.63 10.2 c0.18 0 0.3 0.12 0.3 0.3 l0 9.35 c0 3.09 -2.72 4.11 -5.07 4.11 c-1.6 0 -3.04 -0.45 -4.01 -1.1 c-0.15 -0.1 -0.17 -0.25 -0.09 -0.41 l0.5 -0.93 c0.09 -0.16 0.23 -0.21 0.4 -0.12 c0.86 0.46 1.78 0.73 3.04 0.73 c1.48 0 3.2 -0.57 3.2 -2.37 l0 -1.29 c-0.74 0.93 -1.81 1.58 -3.22 1.58 c-2.77 0 -4.77 -2.27 -4.77 -5.03 s2 -5.03 4.77 -5.03 c1.35 0 2.43 0.63 3.18 1.55 l0.06 -1.04 c0.02 -0.18 0.12 -0.3 0.3 -0.3 l1.41 0 z M204.91 18.07 c1.67 0 2.89 -1.45 2.89 -3.07 c0 -1.6 -1.22 -3.03 -2.89 -3.03 s-2.91 1.34 -2.91 3.03 c0 1.71 1.24 3.07 2.91 3.07 z M222.225 9.98 c2.96 0 4.74 2.27 4.74 4.89 c0 0.74 -0.09 1.11 -0.65 1.11 l-6.99 0 c0.23 1.52 1.5 2.5 3.31 2.5 c1.05 0 1.78 -0.32 2.45 -0.83 c0.16 -0.12 0.28 -0.15 0.43 0 l0.66 0.66 c0.15 0.15 0.16 0.29 0 0.45 c-0.95 0.95 -2.19 1.5 -3.76 1.5 c-3.12 0 -5.19 -2.26 -5.19 -5.14 s2.07 -5.14 5 -5.14 z M222.23499999999999 11.83 c-1.53 0 -2.67 1 -2.89 2.59 l5.72 0 c-0.16 -1.57 -1.27 -2.59 -2.83 -2.59 z M246.805 20 c-0.18 0 -0.3 -0.12 -0.3 -0.3 l0 -9.2 c0 -0.18 0.12 -0.3 0.3 -0.3 l1.33 0 c0.18 0 0.29 0.12 0.3 0.3 l0.05 0.8 l0.15 0 c0.38 -0.87 1.17 -1.32 2.18 -1.32 c0.96 0 1.68 0.41 2.06 1.32 l0.12 0 c0.43 -0.88 1.24 -1.32 2.23 -1.32 c1.59 0 2.55 0.91 2.55 3.48 l0 6.24 c0 0.18 -0.12 0.3 -0.3 0.3 l-1.41 0 c-0.18 0 -0.3 -0.12 -0.3 -0.3 l0 -6.24 c0 -1.22 -0.41 -1.62 -1.18 -1.62 c-0.96 0 -1.37 0.72 -1.46 1.32 l0 6.54 c0 0.18 -0.12 0.3 -0.3 0.3 l-1.37 0 c-0.18 0 -0.3 -0.12 -0.3 -0.3 l0 -6.24 c0 -1.22 -0.41 -1.62 -1.2 -1.62 c-0.93 0 -1.35 0.72 -1.44 1.32 l0 6.54 c0 0.18 -0.12 0.3 -0.3 0.3 l-1.41 0 z M270.07 9.98 c2.96 0 4.74 2.27 4.74 4.89 c0 0.74 -0.09 1.11 -0.65 1.11 l-6.99 0 c0.23 1.52 1.5 2.5 3.31 2.5 c1.05 0 1.78 -0.32 2.45 -0.83 c0.16 -0.12 0.28 -0.15 0.43 0 l0.66 0.66 c0.15 0.15 0.16 0.29 0 0.45 c-0.95 0.95 -2.19 1.5 -3.76 1.5 c-3.12 0 -5.19 -2.26 -5.19 -5.14 s2.07 -5.14 5 -5.14 z M270.08 11.83 c-1.53 0 -2.67 1 -2.89 2.59 l5.72 0 c-0.16 -1.57 -1.27 -2.59 -2.83 -2.59 z M286.755 9.98 c2.96 0 4.74 2.27 4.74 4.89 c0 0.74 -0.09 1.11 -0.65 1.11 l-6.99 0 c0.23 1.52 1.5 2.5 3.31 2.5 c1.05 0 1.78 -0.32 2.45 -0.83 c0.16 -0.12 0.28 -0.15 0.43 0 l0.66 0.66 c0.15 0.15 0.16 0.29 0 0.45 c-0.95 0.95 -2.19 1.5 -3.76 1.5 c-3.12 0 -5.19 -2.26 -5.19 -5.14 s2.07 -5.14 5 -5.14 z M286.765 11.83 c-1.53 0 -2.67 1 -2.89 2.59 l5.72 0 c-0.16 -1.57 -1.27 -2.59 -2.83 -2.59 z M308.18 18.35 c0.11 0.13 0.13 0.28 0.02 0.41 c-0.42 0.52 -1.51 1.4 -3.3 1.4 c-2.05 0 -3.98 -0.76 -3.98 -3.97 l0 -4.18 l-2.48 0 c-0.18 0 -0.3 -0.12 -0.3 -0.3 l0 -1.21 c0 -0.18 0.12 -0.3 0.3 -0.3 l2.48 0 l0 -2.6 c0 -0.18 0.12 -0.3 0.3 -0.3 l1.56 0 c0.18 0 0.3 0.12 0.3 0.3 l0 2.6 l3.95 0 c0.18 0 0.3 0.12 0.3 0.3 l0 1.21 c0 0.18 -0.12 0.3 -0.3 0.3 l-3.95 0 l0 3.95 c0 1.87 1.08 2.26 2.19 2.26 c0.83 0 1.43 -0.36 1.82 -0.67 c0.14 -0.13 0.3 -0.12 0.42 0.02 z M319.40500000000003 14.3 c2.11 0.27 4.56 0.53 4.56 2.94 c0 1.79 -1.48 3.02 -4.51 3.02 c-2.62 0 -4.39 -0.77 -4.62 -3.1 c-0.02 -0.2 0.11 -0.3 0.29 -0.3 l1.49 0 c0.18 0 0.27 0.08 0.29 0.22 c0.15 1.01 1.09 1.38 2.51 1.38 c1.54 0 2.43 -0.4 2.43 -1.26 c0 -0.91 -1.04 -1.13 -2.44 -1.3 c-2.08 -0.27 -4.38 -0.55 -4.38 -2.92 c0 -1.77 1.38 -3 4.23 -3 c2.48 0 4.27 0.76 4.5 3.09 c0.02 0.2 -0.11 0.3 -0.29 0.3 l-1.49 0 c-0.18 0 -0.27 -0.08 -0.29 -0.22 c-0.15 -1.01 -1.11 -1.38 -2.4 -1.38 c-1.33 0 -2.15 0.38 -2.15 1.25 s0.88 1.1 2.27 1.28 z M343.705 20 c-0.18 0 -0.3 -0.12 -0.3 -0.3 l0 -9.2 c0 -0.18 0.12 -0.3 0.3 -0.3 l1.33 0 c0.18 0 0.29 0.12 0.3 0.3 l0.05 0.8 l0.15 0 c0.38 -0.87 1.17 -1.32 2.18 -1.32 c0.96 0 1.68 0.41 2.06 1.32 l0.12 0 c0.43 -0.88 1.24 -1.32 2.23 -1.32 c1.59 0 2.55 0.91 2.55 3.48 l0 6.24 c0 0.18 -0.12 0.3 -0.3 0.3 l-1.41 0 c-0.18 0 -0.3 -0.12 -0.3 -0.3 l0 -6.24 c0 -1.22 -0.41 -1.62 -1.18 -1.62 c-0.96 0 -1.37 0.72 -1.46 1.32 l0 6.54 c0 0.18 -0.12 0.3 -0.3 0.3 l-1.37 0 c-0.18 0 -0.3 -0.12 -0.3 -0.3 l0 -6.24 c0 -1.22 -0.41 -1.62 -1.2 -1.62 c-0.93 0 -1.35 0.72 -1.44 1.32 l0 6.54 c0 0.18 -0.12 0.3 -0.3 0.3 l-1.41 0 z M367.12 20.26 c-2.85 0 -5.15 -2.26 -5.15 -5.14 c0 -2.87 2.3 -5.14 5.15 -5.14 c2.84 0 5.14 2.27 5.14 5.14 c0 2.88 -2.3 5.14 -5.14 5.14 z M367.12 18.25 c1.72 0 3.05 -1.4 3.05 -3.13 c0 -1.72 -1.33 -3.14 -3.05 -3.14 c-1.73 0 -3.06 1.42 -3.06 3.14 c0 1.73 1.33 3.13 3.06 3.13 z M388.81500000000005 6 c0.18 0 0.3 0.12 0.3 0.3 l0 13.4 c0 0.18 -0.12 0.3 -0.3 0.3 l-1.41 0 c-0.18 0 -0.28 -0.12 -0.3 -0.3 l-0.07 -0.92 c-0.74 0.87 -1.81 1.48 -3.27 1.48 c-2.8 0 -4.56 -2.24 -4.56 -5.14 s1.71 -5.14 4.56 -5.14 c1.58 0 2.52 0.75 3 1.66 l0.19 0 l0 -5.34 c0 -0.18 0.12 -0.3 0.3 -0.3 l1.56 0 z M384.18500000000006 18.28 c1.77 0 2.87 -1.3 2.87 -3.18 s-1.1 -3.14 -2.87 -3.14 c-1.81 0 -2.89 1.26 -2.89 3.14 s1.08 3.18 2.89 3.18 z M401.41 9.98 c2.96 0 4.74 2.27 4.74 4.89 c0 0.74 -0.09 1.11 -0.65 1.11 l-6.99 0 c0.23 1.52 1.5 2.5 3.31 2.5 c1.05 0 1.78 -0.32 2.45 -0.83 c0.16 -0.12 0.28 -0.15 0.43 0 l0.66 0.66 c0.15 0.15 0.16 0.29 0 0.45 c-0.95 0.95 -2.19 1.5 -3.76 1.5 c-3.12 0 -5.19 -2.26 -5.19 -5.14 s2.07 -5.14 5 -5.14 z M401.42 11.83 c-1.53 0 -2.67 1 -2.89 2.59 l5.72 0 c-0.16 -1.57 -1.27 -2.59 -2.83 -2.59 z M419.25500000000005 9.98 c2.16 0 3.75 1.32 3.75 3.81 c0 0.19 -0.1 0.3 -0.29 0.32 l-1.56 0.22 c-0.19 0.03 -0.3 -0.08 -0.32 -0.27 c-0.09 -1.46 -0.99 -2.07 -2.27 -2.07 c-2.02 0 -2.96 1.69 -2.96 2.29 l0 5.42 c0 0.18 -0.12 0.3 -0.3 0.3 l-1.56 0 c-0.18 0 -0.3 -0.12 -0.3 -0.3 l0 -9.2 c0 -0.18 0.12 -0.3 0.3 -0.3 l1.48 0 c0.18 0 0.28 0.12 0.3 0.3 l0.08 1.32 l0.22 0 c0.64 -0.94 1.83 -1.84 3.43 -1.84 z M435.87 9.98 c2.09 0 3.54 1.42 3.54 4.04 l0 5.68 c0 0.18 -0.12 0.3 -0.3 0.3 l-1.56 0 c-0.18 0 -0.3 -0.12 -0.3 -0.3 l0 -5.36 c0 -1.67 -0.86 -2.37 -2.17 -2.37 c-1.9 0 -2.72 1.64 -2.72 2.08 l0 5.65 c0 0.18 -0.12 0.3 -0.3 0.3 l-1.56 0 c-0.18 0 -0.3 -0.12 -0.3 -0.3 l0 -9.2 c0 -0.18 0.12 -0.3 0.3 -0.3 l1.48 0 c0.18 0 0.28 0.12 0.3 0.3 l0.08 1.32 l0.21 0 c0.58 -0.94 1.65 -1.84 3.3 -1.84 z M451.55500000000006 8.13 c-0.7 0 -1.25 -0.55 -1.25 -1.24 c0 -0.7 0.55 -1.25 1.25 -1.25 c0.69 0 1.24 0.55 1.24 1.25 c0 0.69 -0.55 1.24 -1.24 1.24 z M455.61500000000007 18.19 c0.18 0 0.3 0.12 0.3 0.3 l0 1.21 c0 0.18 -0.12 0.3 -0.3 0.3 l-8.61 0 c-0.18 0 -0.3 -0.12 -0.3 -0.3 l0 -1.21 c0 -0.18 0.12 -0.3 0.3 -0.3 l3.49 0 l0 -6.18 l-2.99 0 c-0.18 0 -0.3 -0.12 -0.3 -0.3 l0 -1.21 c0 -0.18 0.12 -0.3 0.3 -0.3 l4.85 0 c0.18 0 0.3 0.12 0.3 0.3 l0 7.69 l2.96 0 z M472.50000000000006 18.35 c0.11 0.13 0.13 0.28 0.02 0.41 c-0.42 0.52 -1.51 1.4 -3.3 1.4 c-2.05 0 -3.98 -0.76 -3.98 -3.97 l0 -4.18 l-2.48 0 c-0.18 0 -0.3 -0.12 -0.3 -0.3 l0 -1.21 c0 -0.18 0.12 -0.3 0.3 -0.3 l2.48 0 l0 -2.6 c0 -0.18 0.12 -0.3 0.3 -0.3 l1.56 0 c0.18 0 0.3 0.12 0.3 0.3 l0 2.6 l3.95 0 c0.18 0 0.3 0.12 0.3 0.3 l0 1.21 c0 0.18 -0.12 0.3 -0.3 0.3 l-3.95 0 l0 3.95 c0 1.87 1.08 2.26 2.19 2.26 c0.83 0 1.43 -0.36 1.82 -0.67 c0.14 -0.13 0.3 -0.12 0.42 0.02 z M488.94500000000005 10.2 c0.22 0 0.33 0.12 0.24 0.34 l-5.4 13.02 c-0.06 0.16 -0.2 0.24 -0.36 0.24 l-1.56 0 c-0.22 0 -0.33 -0.12 -0.24 -0.34 l1.43 -3.44 l-3.97 -9.48 c-0.09 -0.22 0.02 -0.34 0.24 -0.34 l1.56 0 c0.16 0 0.3 0.08 0.36 0.24 l2.89 7.13 l2.88 -7.13 c0.07 -0.16 0.2 -0.24 0.36 -0.24 l1.57 0 z"
    ></path>
  </g>
</svg>
