<svg xmlns="http://www.w3.org/2000/svg" version="1.0" viewBox="0 0 1969 484">
  <path fill="#fff"
    d="M1642.5 45c-23.6 2.5-37.4 14.3-39.2 33.3-2 21.4 13.4 35 45.2 40.1 13.7 2.1 19.8 4.1 23.4 7.5 5.3 5 3.7 11.6-3.8 15.2-3.9 1.9-6.3 2.3-15.6 2.3-9.5.1-11.6-.2-15.2-2.1-5.1-2.8-8.1-6.5-9.6-12l-1.1-4.3H1603v3.3c0 5.5 2.9 14.9 6.2 20.1 5.5 8.4 17.1 16.2 27.6 18.5 7.4 1.5 24.4 1.3 32.6-.4 13.3-2.8 23.4-10 27.7-19.8 3.5-8 3.4-20.2-.4-27.8-6.5-13.2-20-21.1-42-24.4-15.5-2.3-20.8-4.2-24.6-9.1-6.7-8.6 3.4-16.4 21.3-16.4 12.5 0 21.3 4.8 23.8 13.1l1.1 3.9h23.8l-.7-4.8c-2.3-15.7-12.4-28.2-27-33.2-4.6-1.6-20.5-4.3-22.4-3.9-.3.1-3.6.5-7.5.9m143 0c-24.3 2.6-38 14.6-39.3 34.3-1.3 21.2 14 34.4 45.6 39.2 11.8 1.8 16.8 3.1 20.8 5.6 3.1 1.9 5.4 5.6 5.4 8.8 0 2.8-3.8 7-7.8 8.7-5.3 2.2-18.8 2.9-25.2 1.4-7.1-1.7-13.5-7.7-14.5-13.7l-.7-4.2-11.9-.3-11.9-.3v4.2c0 10.4 6.3 22.5 15.3 29.2 10.7 8 17.9 10.1 34 10.1 23-.1 37.6-6.9 44.3-20.7 2.4-4.8 2.8-7 2.9-14.2 0-7.4-.4-9.4-2.8-14.2-6.5-13.4-20-21.1-42.5-24.4-14.5-2.1-17.9-3.3-22.4-7.6-6.2-5.9-4.6-12 4.1-15.6 5-2.1 18.7-2.8 24.9-1.4 6.6 1.6 12.8 6.9 14.2 12.2l1.1 3.9h24l-.7-4.8c-3.6-25.2-26.1-39.5-56.9-36.2m-1465 6c-24.9 3.8-45.7 24.3-50.2 49.5-3 17.1.8 33.5 11 47 8.7 11.6 20.3 19.6 33.3 23 7.5 1.9 23.3 1.9 30.8 0 30.4-7.9 50.3-39.8 44.2-70.6-4.4-21.8-20.2-39.9-40.6-46.3-8.8-2.8-20.1-3.8-28.5-2.6m22.7 27c7.2 2.7 14.7 9.5 18.9 17.2 3.2 6 3.4 6.8 3.4 16.3s-.2 10.3-3.4 16.3c-3.8 7-9 12-16.6 16-4.4 2.3-6.2 2.6-15 2.7-8.8 0-10.7-.3-15.8-2.7-6.8-3.2-14.5-10.7-17.8-17.5-2-4.1-2.3-6.3-2.3-14.8s.3-10.7 2.4-15c3.4-7 12.6-15.8 19.2-18.4 7.3-2.8 19.8-2.8 27-.1m57.5-27.3c-.4.3-.7 27.2-.7 59.6v58.9l27.8-.5c29.9-.5 33.1-.9 44.1-6.4 8.1-4.1 21-17.1 25-25.3 4.6-9.6 6.1-16.2 6.1-27.8 0-12.1-2.7-21.6-8.6-30.9-10-15.6-25.3-25.1-44.2-27.3-9.7-1.1-48.5-1.4-49.5-.3m57.7 29.7c3.1 1.5 7.4 4.9 10 7.7 14.6 16.2 9.9 40.5-9.6 50.5-4.7 2.5-6.7 2.8-17.7 3.2-9.7.4-12.5.2-13.2-.9-1.5-2.3-1.1-61.3.4-62.8.9-1 4.1-1.2 12.9-.8 10.1.3 12.4.8 17.2 3.1M515 109v59h82v-25h-54v-21h46V96h-46.1l.3-10.3.3-10.2 26.8-.3L597 75V50h-82zm94-.1V168h28l.2-18.8.3-18.7 5.7-.3c3.2-.2 6.5.1 7.3.5.8.5 6.8 9 13.4 19.1l12 18.2h31l-10.2-16.3c-5.7-8.9-11.3-17.8-12.5-19.8l-2.2-3.7 5.2-3c14.3-8 22.6-25.2 19.8-41-2.4-14.1-9.6-23.9-21.8-29.9l-7.6-3.8-34.3-.3-34.3-.3zm65-32.3c5.7 2.3 9.4 8.7 8.7 15.1-.6 5.4-3.1 9.2-7.8 11.5-2.8 1.5-6.2 1.8-20.6 1.8H637V75h16.5c12.8 0 17.3.4 20.5 1.6m123 3.5c0 19-.4 29.9-1 29.7-.5-.2-18-13.5-38.9-29.6C736.2 64.2 719 51 718.8 51s-.3 26.3-.3 58.5V168H746v-28.5c0-15.7.4-28.5.8-28.5.5 0 5.6 3.5 11.3 7.7s14.7 10.8 19.9 14.6c5.2 3.9 12.7 9.3 16.5 12.2 22.9 16.8 29.3 21.5 29.9 21.5.3 0 .6-26.3.6-58.5V50h-28zm191 28.8V168h27v-37l2.3-.5c1.3-.4 4.6-.5 7.3-.3l4.9.3 12.4 18.7 12.4 18.8h30.9l-2.3-3.8c-1.3-2-6.9-11-12.6-19.9L1060 128l5.1-2.6c18.2-9.2 26-33.9 16.8-53.1-3.5-7.3-13.2-16.5-20.4-19.4-5.8-2.3-6.9-2.4-39.7-2.7l-33.8-.3zm66.3-31.6c9.4 6.2 8.9 21.5-.9 25.9-3.8 1.6-6.4 1.8-21.1 1.6l-16.8-.3-.3-13.4c-.1-7.4 0-14.1.3-14.9.4-1.1 3.9-1.3 18.3-1 15.1.2 18.2.6 20.5 2.1m171.7 31.8v59l35.8-.3 35.7-.3 5.8-2.7c10.3-4.9 16.3-11.4 19.1-20.7 3.9-13.2-.4-31.5-9.1-39.1l-3.6-3.2 2.2-4.6c8.7-19 0-39.1-19.6-45.2-5.9-1.8-9.2-2-36.4-2H1226zm57.2-37.1c2 .6 5 2.6 6.7 4.6 5.8 6.6 3.6 16.5-4.5 20.5-3.6 1.7-5.8 1.9-17.5 1.7l-13.4-.3-.3-12.4c-.1-6.9 0-13.1.2-13.8.7-1.6 23.1-1.8 28.8-.3m14.7 51.4c5.8 5.6 5.9 14 .2 19.7-3.6 3.5-7.6 4.1-27.6 3.7l-16-.3-.3-13.3-.3-13.3 20.5.3 20.5.3zM1432.4 51c-23.1 3.4-44 22-49.9 44.6-.9 3.4-1.5 10.1-1.5 16 0 17.5 5.5 30.8 17.7 43 11.8 11.9 25.2 17.4 42.3 17.4 16.9 0 29.3-4.8 41.2-15.9 8-7.5 12.7-14.6 16.6-24.9 2.3-5.9 2.6-8.2 2.5-19.7 0-11.3-.3-13.9-2.5-20.1-7.6-21.4-26.8-37.2-49.1-40.3-8.6-1.2-9.8-1.2-17.3-.1m25.1 28.4c6 3 13.2 10.3 16.6 16.7 3.4 6.6 3.9 20.3.9 28.1-2.8 7.4-9.3 14.6-17.2 18.9-6 3.2-6.8 3.4-16.3 3.4-8.9 0-10.6-.3-15.6-2.8-6.7-3.3-15.2-11.8-18.2-18.4-3.3-7.4-3.1-20.8.5-28.5 8.5-18.3 31.1-26.3 49.3-17.4M1709 109v59h28V50h-28zm-1574.2.4-.3 58.6H162v-32.5c0-26.6.2-32.5 1.4-32.5.7 0 8 4.4 16.2 9.8s15.4 10.1 16 10.5c.6.3 8.9-4.3 18.4-10.3s17.7-10.7 18.2-10.4c.4.3.8 15.1.8 33V168h27v-58.5c0-32.2-.3-58.5-.6-58.5s-3.8 2.1-7.7 4.7c-31.1 20.2-52.5 33.7-53.8 34-1 .3-13.5-7.2-29.2-17.4-15.2-9.8-29-18.6-30.6-19.6l-3.1-1.9zm779.9-56.2c-.8 1.2-5.3 9.5-10 18.3-13.5 25.4-43.5 81.3-47.9 89.2l-3.9 7.3h32l4.3-8.3 4.3-8.2h45l4.3 8.2 4.3 8.3h32l-1.7-3.3c-.9-1.7-4.6-8.6-8.2-15.2C958.8 130.1 953 119.3 925 67c-4.6-8.5-8.4-15.7-8.6-15.8-.1-.2-.9.7-1.7 2m7.2 65.7c2.8 5.4 4.7 10.1 4.4 10.5-.8.8-19.8.8-20.6 0-1-1 9.3-20.4 10.8-20.4.3 0 2.7 4.4 5.4 9.9m204.3-9.9c-17.1 31.9-31.2 58.2-31.2 58.5s7.1.5 15.8.5h15.8l3.5-7.2c1.9-3.9 4-7.7 4.7-8.5 1.9-1.8 43.6-1.9 45.3-.1.6.7 2.8 4.4 4.8 8.3l3.6 7 15.9.3c14.8.2 15.8.1 15.2-1.5-.4-1-5.8-11.3-12-22.8-6.2-11.6-19.8-36.8-30.1-56-10.3-19.3-19-35.3-19.4-35.7-.3-.4-14.7 25.3-31.9 57.2m37.1 9.5c2.6 5.2 4.7 10 4.7 10.5 0 .6-4.3 1-10.5 1-6.6 0-10.5-.4-10.5-1 0-2.2 9.7-20 10.9-20 .3 0 2.8 4.3 5.4 9.5M1528 90.7c-11.8 21.9-25.8 48-31.2 58s-9.8 18.4-9.8 18.8c0 .3 7.1.4 15.8.3l15.7-.3 3.7-7c2-3.9 4.1-7.6 4.7-8.3 1.7-1.8 43.4-1.7 45.3.1.7.8 2.8 4.6 4.7 8.5l3.5 7.2h15.8c8.7 0 15.8-.3 15.8-.7s-3.8-7.7-8.4-16.2c-4.6-8.6-16.4-30.5-26.1-48.6-9.7-18.2-19.9-37.2-22.7-42.3-2.7-5-5.1-9.2-5.2-9.2s-9.9 17.9-21.6 39.7m27.5 28.4c2.5 4.9 4.5 9.3 4.5 9.9s-4 1-10.5 1c-6.6 0-10.5-.4-10.5-1 0-2.9 9.9-20.2 11.1-19.4.5.3 3 4.6 5.4 9.5m-646.1 102c-6.8 1.6-14.5 6.8-17.8 12.3-3.8 6.1-4.7 15.4-2.1 22.1 3.2 8.6 13.2 14.9 27.5 17.4 14.4 2.6 17.1 3.3 20 5.8 5 4.2 3.2 9.9-3.9 12.2-5.4 1.8-16 1.3-20.8-.8-4.3-2-7.3-6.2-7.3-10.1 0-1.9-.6-2-8.5-2H888v3.8c0 10 6.8 19.5 17.8 24.9 5.3 2.6 6.5 2.8 17.7 2.7 14.5 0 20.9-2.1 27.3-8.6 5-5 6.6-9.3 6.6-17.3-.1-14.5-10.9-23.6-31.7-27-12.6-2-17.4-3.9-19.3-7.7-1.4-2.7-1.4-3.2.1-5.5.9-1.3 3.2-3.1 5-3.9 4.4-1.8 16.6-1.8 20.8 0 3.8 1.6 7.4 5.3 7.9 8.1.3 1.8 1.2 2 9 2.3l8.7.3-.6-3.8c-1.7-11.6-9.7-20.8-21-24.3-7-2.2-19.4-2.6-26.9-.9m501 0c-6.8 1.6-14.5 6.8-17.8 12.3-3.8 6.1-4.7 15.4-2.1 22.1 3.2 8.6 13.2 14.9 27.5 17.4 14.4 2.6 17.1 3.3 20 5.8 5 4.2 3.2 9.9-3.9 12.2-5.4 1.8-16 1.3-20.8-.8-4.3-2-7.3-6.2-7.3-10.1 0-1.9-.6-2-8.5-2h-8.5v3.8c0 10 6.8 19.5 17.8 24.9 5.3 2.6 6.5 2.8 17.7 2.7 14.5 0 20.9-2.1 27.3-8.6 5-5 6.6-9.3 6.6-17.3-.1-14.5-10.9-23.6-31.7-27-12.6-2-17.4-3.9-19.3-7.7-1.4-2.7-1.4-3.2.1-5.5.9-1.3 3.2-3.1 5-3.9 4.4-1.8 16.6-1.8 20.8 0 3.8 1.6 7.4 5.3 7.9 8.1.3 1.8 1.2 2 9 2.3l8.7.3-.6-3.8c-1.7-11.6-9.7-20.8-21-24.3-7-2.2-19.4-2.6-26.9-.9m168.1 1.9c-30.3 9.9-40.6 48.8-19 71.9 9.9 10.6 20 14.6 34.9 13.9 9.5-.4 17-2.9 22.6-7.6l2.5-2.1-6.2-6.2-6.1-6.2-5.3 2.2c-11.1 4.8-24 1.3-31.5-8.7-9.2-12-5.1-29.9 8.6-37.6 7.2-4 16.9-4.4 24-.9l4.5 2.3 6.3-6.3 6.3-6.2-2.3-1.9c-1.3-1-5.2-3.2-8.7-4.9-8.5-4-21.5-4.7-30.6-1.7M353 267v43h20v-34h24v-18h-24v-16h33v-18h-53zm89-41.9c-11.5 2.3-25.1 13-30.3 24-5.6 11.9-5.6 26.9 0 38.8 3.5 7.4 13.5 17.4 20.8 20.7 12.1 5.6 26.6 5.5 38.2-.2 7.6-3.7 16.3-12.6 20.3-20.8 2.8-5.6 3.3-8 3.7-15.9.8-15.2-3-25.2-13.2-35.2s-24.9-14.3-39.5-11.4m20.5 19.9c4.9 2.1 10 7.1 12.8 12.4 1.6 3 2.1 5.9 2.2 11.1 0 6-.4 7.8-3.1 12.5-7.5 13.2-23.5 17.4-36.9 9.6-8.7-5.2-13.2-14.2-12.2-24.9 1.6-17.5 20.6-28 37.2-20.7m39.5 22v43h19.9l.3-13.8.3-13.7 4.5-.3c2.5-.1 5 .1 5.6.5.6.5 4.9 6.8 9.7 14l8.6 13.3h22.3l-1.4-2.3c-8.8-13.5-17-26.8-16.7-27.1.2-.2 1.8-1 3.5-1.9 4.7-2.4 9.4-7.7 12.1-13.6 2.2-4.6 2.5-6.3 2.1-13.5-.5-9.7-3.1-15.1-10-21-6.8-5.9-11-6.6-37.5-6.6H502zm48.6-23.1c6 3.7 6.9 12.4 1.8 17.2-2.4 2.3-3.4 2.4-16.5 2.7l-13.9.4V242h12.8c10.7 0 13.2.3 15.8 1.9M615 267v43h20v-86h-20zm83-21.5c0 14.8-.3 21.5-1.1 21.5s-31.7-23.3-54.6-41.3c-1-.7-1.3 7.7-1.3 41.7V310h19v-20.4c0-11.3.4-20.7.9-21s12.9 8.3 27.7 19.2 27.5 20.1 28.2 20.6c.9.6 1.2-8.1 1.2-41.8V224h-20zm50.8 20.5c12.4 23.1 22.9 42 23.2 42 .5 0 45-82.4 45-83.4 0-.4-5.1-.5-11.2-.4l-11.3.3-10.7 20.5c-5.9 11.3-11.2 20.5-11.8 20.5s-6-9.2-11.9-20.5l-10.8-20.5-11.6-.3-11.5-.3zm75.2 1v43h59v-18l-19.7-.2-19.8-.3v-15l16.8-.3 16.7-.2v-18l-16.7-.2-16.8-.3v-15l19.8-.3 19.7-.2v-18h-59zm143-33v10h22v66h20v-66h22v-20h-64zm172 33v43h59v-18h-39v-16h33v-18h-33v-16h39v-18h-59zm125-21.5c0 16.5-.3 21.5-1.2 21.5-.7 0-7.8-5.1-15.8-11.3s-20.2-15.7-27.2-21.1l-12.8-9.7V310h19v-21.1c0-17.1.3-21 1.3-20.6.7.3 13.3 9.3 27.9 20.1s26.9 19.6 27.2 19.6.6-18.9.6-42v-42h-19zm28-11.5v10h22v66h20v-66h22v-20h-64zm176 33v43h18.9l.3-13.8.3-13.7 15.5-.5c13.4-.5 16.1-.9 19.6-2.7 6.6-3.5 10.1-7 13.1-13.1 2.3-4.8 2.8-6.9 2.7-13.2-.1-9.1-1.9-13.4-8.1-20.1-7.6-8.1-11-8.9-38.8-8.9H1468zm50.1-21.2c3.2 3.5 3.8 8.1 1.8 12.6-2 4.4-6.4 5.6-20.3 5.6H1487v-22.2l14.1.4 14.1.3zM1039 267.5V310h20v-24c0-13.2.3-24 .6-24 .4 0 5.8 3.4 12.1 7.5 6.2 4.1 11.8 7.5 12.4 7.5s5.9-3.2 11.9-7c6-3.9 11.6-7.3 12.5-7.6 1.3-.5 1.5 2.3 1.5 23.5V310h20v-42.5c0-23.4-.2-42.5-.6-42.5-.3 0-10.3 6.3-22.3 14s-22.2 14-22.8 14c-.5 0-10.7-6.3-22.6-14s-21.9-14-22.2-14-.5 19.1-.5 42.5m-514 143c0 16.7.2 19.5 1.5 19.5 1.2 0 1.5-1.4 1.5-6.3 0-11.9 3.5-17.7 10.6-17.7 6.1 0 7.4 2.5 7.4 14 0 8.2.3 10 1.5 10s1.5-1.9 1.5-10.9c0-10.2-.2-11.2-2.4-13.8-3.4-4-10.2-4-14.3-.1-1.6 1.6-3.2 2.8-3.6 2.8s-.7-3.8-.7-8.5c0-6.9-.3-8.5-1.5-8.5-1.3 0-1.5 2.8-1.5 19.5m167 0c0 12.3.4 19.5 1 19.5s1-2.6 1-5.8c0-11.9 3.8-18.2 10.9-18.2 6 0 7.1 2.2 7.1 14.2 0 8 .3 9.8 1.5 9.8s1.5-1.9 1.5-11.1c0-11 0-11.1-3-14.1-2.7-2.7-3.6-3-7.2-2.5-2.4.3-5.1 1.6-6.7 3.1-1.5 1.4-3 2.6-3.4 2.6s-.7-3.8-.7-8.5c0-5-.4-8.5-1-8.5s-1 7.2-1 19.5m109-17c0 1.8.5 2.5 2 2.5s2-.7 2-2.5-.5-2.5-2-2.5-2 .7-2 2.5m28 3c0 5.4 0 5.5-3 5.5-2.3 0-3 .4-3 2s.7 2 3 2h3v7.7c0 12.4 4.5 18.4 12.5 16.9 5.2-1 11.4-9.6 7-9.6-.8 0-1.5.6-1.5 1.4 0 2.2-4 4.6-7.6 4.6-5.2 0-6.8-2.9-7.3-12.6l-.3-8.4h6.1c5.4 0 6.1-.2 6.1-2s-.7-2-6-2h-6v-5.5c0-4.2-.3-5.5-1.5-5.5s-1.5 1.3-1.5 5.5m266 0c0 5.4 0 5.5-3 5.5-2.3 0-3 .4-3 2s.7 2 3 2h3v7.7c0 12.4 4.5 18.4 12.5 16.9 5.2-1 11.4-9.6 7-9.6-.8 0-1.5.6-1.5 1.4 0 2.2-4 4.6-7.6 4.6-5.2 0-6.8-2.9-7.3-12.6l-.3-8.4h6.1c5.4 0 6.1-.2 6.1-2s-.7-2-6-2h-6v-5.5c0-4.2-.3-5.5-1.5-5.5s-1.5 1.3-1.5 5.5m177-3.5c0 1.6.7 2 3 2 2.9 0 3 .2 3 4.3 0 2.4-.3 4.6-.6 4.9-.3.4-2.2 0-4.1-.9-4.9-2-9.9-.9-13.8 3-10.7 10.7.8 29.4 14.1 23.1 2.7-1.3 3.9-1.5 4.2-.6.2.7 1 1.2 1.8 1.2 1.2 0 1.4-3.3 1.4-19.5V391h-4.5c-3.8 0-4.5.3-4.5 2m2.3 14.1c3.3 1.8 3.7 2.8 3.7 9.6 0 5.5-.3 6.4-2.6 8.2-3.2 2.5-8.3 2.7-12.4.6-6.1-3.1-6.2-14.7-.2-18 3.3-1.7 8.6-1.9 11.5-.4m125.7-13.6c0 1.8.5 2.5 2 2.5s2-.7 2-2.5-.5-2.5-2-2.5-2 .7-2 2.5m28 3c0 5.4 0 5.5-3 5.5-2.3 0-3 .4-3 2s.7 2 3 2h3v8.5c0 10.8 1.4 14 7.1 15.7 3.7 1 4.6 1 7.7-.8 3.5-1.8 6.4-6.6 4.9-8-.3-.4-1.8.8-3.2 2.5-3.2 3.8-8.3 4.3-11.5 1.1-1.7-1.7-2-3.3-2-10.5V406h6c5.3 0 6-.2 6-2s-.7-2-6-2h-6v-5.5c0-4.2-.3-5.5-1.5-5.5s-1.5 1.3-1.5 5.5m-938 6.2c0 .5 1.2 6.8 2.7 14 2.2 10.8 3.1 13.3 4.5 13.3 1.8 0 2.1-.7 3.8-9.5 2.4-12.5 3.1-12.5 5.7-.3 1.6 7.7 2.3 9.4 3.9 9.6 1.8.3 2.2-.9 4.3-11.5 1.2-6.5 2.5-12.8 2.8-14.1.4-1.5.1-2.2-1-2.2-1.8 0-2.2 1-3.8 11.1-1.1 7.2-2.3 10.9-3.2 9.9-.2-.3-1.3-5-2.3-10.5-2.7-13.9-4.4-14-7-.3-1 5.7-2.4 10.3-2.9 10.3s-1.3-2.3-1.8-5c-1.8-11.8-2.9-15.5-4.3-15.5-.8 0-1.4.3-1.4.7m74.1 1.1c-5 2.7-7.3 7.5-6.8 14 .4 6.2 3.9 10.6 9.9 12.4 4.5 1.3 10.5-.1 13.2-3.1 2.4-2.6 1.1-4.9-1.4-2.6s-9.3 3-13 1.5c-2.6-1.1-6-5.3-6-7.5 0-.3 5.4-.5 12-.5 11.8 0 12 0 12-2.3 0-1.2-.9-4-1.9-6.3-3.1-6.8-11.1-9.3-18-5.6m13.1 4.2c1.4 1.1 2.8 2.9 3.1 4 .5 1.9.1 2-9.9 2-6.8 0-10.4-.4-10.4-1.1 0-.6 1.3-2.4 2.9-4 3.7-3.6 10.4-4.1 14.3-.9m12.8-4.6c0 .9 1.2 1.6 3.3 1.8l3.2.3.3 10.2.3 10.3h-3.6c-2.8 0-3.5.4-3.5 2 0 1.8.7 2 8 2s8-.2 8-2c0-1.6-.7-2-3-2h-3v-6.6c0-6.2.2-6.8 3.4-10 2.9-2.9 4.1-3.4 7.9-3.4 4.3 0 6.7-1.3 5.2-2.8-.4-.4-2.9-.7-5.7-.7-4.5 0-5.3.4-7.9 3.5l-2.9 3.4V402h-5c-3.7 0-5 .4-5 1.4m41.1.4c-5.1 2.5-7.3 6.1-7.4 11.9-.1 9.5 6.3 15.9 15.1 15 3-.3 5.3-1.3 7.2-3.2 3.8-3.6 2.8-5.2-1.4-2.5-5.1 3.1-11.1 2.7-14.7-.9-5.3-5.4-4.4-6.1 8.6-6.1H650v-3.3c0-4.4-3.4-9.5-7.5-11.3-4.5-1.8-7.3-1.8-11.4.4m11.8 3.7c2.6 1.3 4.1 3.3 4.1 5.6 0 .5-4.5.9-10 .9-11.2 0-12.3-.9-6.9-5.4 3.5-3 8.4-3.4 12.8-1.1m88.5-4.1c-12.2 5.3-10 24.7 3.1 27.2 4.6.8 7.7 0 11.5-3.2 3.8-3.3 2.1-5.4-1.8-2.3-3.6 2.8-10.3 2.6-14-.6-1.6-1.4-3.2-3.4-3.5-4.5-.5-1.9 0-2 11.4-2H750v-3.3c0-4.4-3.4-9.5-7.5-11.3-4.2-1.7-7.1-1.7-11.1 0m12.7 5.5c1.6 1.6 2.9 3.4 2.9 4 0 .7-3.5 1.1-10 1.1-10.4 0-11.6-.6-8.7-4.2 3.8-4.8 11.5-5.2 15.8-.9m12.9-5.4q0 1.5 3 1.5h3v21h-3c-2.3 0-3 .4-3 2 0 1.8.7 2 7.5 2s7.5-.2 7.5-2c0-1.6-.7-2-3.1-2h-3.1l.4-7c.5-9.1 3.1-12.2 11-13 6.1-.6 7.5-2.6 2.5-3.5-4.6-.9-7.5.1-10.9 3.7l-2.8 3V402h-4.5c-3.3 0-4.5.4-4.5 1.5m38 .5c0 1.6.7 2 3.5 2h3.5v20h-3.5c-2.8 0-3.5.4-3.5 2 0 1.8.7 2 8 2s8-.2 8-2c0-1.6-.7-2-3-2h-3v-24h-5c-4.3 0-5 .3-5 2m67.1 0c-3.2 1.5-4.1 2.4-3.3 3.2.7.7 1.9.7 4.3-.1 5.6-1.9 10.7-1.4 13.5 1.4 1.4 1.4 2.4 3 2.2 3.6-.2.7-3.6 1.2-8 1.3-5.2.2-8.4.8-10.2 2-4.9 3.2-5.6 9.5-1.4 13.3 3 2.7 11.5 2.4 15.7-.6l3.2-2.3.6 2.1c.3 1.1 1.2 2.1 1.9 2.1 1.1 0 1.4-2 1.3-9.3-.1-5-.4-10.3-.8-11.6-1.7-6.1-11.3-8.7-19-5.1m16.9 14c0 7-12.3 11.8-18.1 7.1-2-1.6-2.2-2.3-1.3-3.8.6-1 2.2-2.4 3.5-3 2.8-1.5 15.9-1.7 15.9-.3m18.4-14.6c-5 2.2-7.4 6.1-7.4 12.2 0 2.9.5 6.4 1.2 7.8 2.4 5.5 10.3 7.9 16.2 5.1 2-1 3.9-1.5 4.3-1.2.9 1-.7 7.4-2.2 8.7-2.8 2.4-10.1 2.4-13.9.2-4-2.4-5.8-1.2-3 1.9 4.5 5 14.4 4.7 19.5-.7 2.3-2.5 2.4-3.2 2.7-19 .3-14.4.1-16.4-1.2-16.4-.9 0-1.6.7-1.6 1.5 0 1.9-1 1.9-4.6 0-3.5-1.8-5.9-1.8-10-.1m11.6 4.1c2.9 1.5 3 1.8 3 8.5s-.1 7-3 8.5c-3.4 1.8-9.3 2-12.2.4-4.2-2.3-5.6-10.7-2.5-15 3-4 9.6-5.1 14.7-2.4m21.3-4.1c-4.5 2.1-7.3 7-7.3 13 0 6.6 2.8 11 8.5 13.2 5.3 2 9.8 1.4 13.9-1.9 4-3.2 2.6-5.3-1.7-2.7-5 3.1-11.2 2.7-14.8-.9-5.4-5.4-4.4-6.1 9.1-6.1 13.1 0 12.7.2 11-6.1-2.2-7.8-11.2-11.9-18.7-8.5m11.8 3.6c1 .6 2.6 2.4 3.4 4l1.6 3h-10.6c-6.8 0-10.5-.4-10.5-1.1 0-.6 1.3-2.4 2.9-4 2.3-2.3 3.8-2.9 7.1-2.9 2.3 0 5 .5 6.1 1m46.9 9c0 11.3.3 14 1.4 14s1.5-2.4 1.8-10.4c.4-11.1 1.4-13.6 5.3-13.6 3.1 0 3.5 1.5 3.5 13.6 0 8.6.3 10.4 1.5 10.4s1.5-1.7 1.5-9.3c0-9.7 1.3-13.9 4.3-14.5 3.9-.8 4.7 1.5 4.7 12.9 0 9 .3 10.9 1.5 10.9 1.3 0 1.5-2 1.5-12 0-10.7-.2-12.2-2-14-2.4-2.4-5.3-2.6-7.5-.4-1.5 1.5-1.9 1.5-5-.1-3.1-1.7-3.5-1.8-5.9-.2-3.1 2.1-3.6 2.1-3.6.2 0-.8-.7-1.5-1.5-1.5-1.3 0-1.5 2.2-1.5 14m41.1-12.2c-5.1 2.5-7.3 6.1-7.4 11.9-.1 9.5 6.3 15.9 15.1 15 3-.3 5.3-1.3 7.2-3.2 3.8-3.6 2.8-5.2-1.4-2.5-5.1 3.1-11.1 2.7-14.7-.9-5.3-5.4-4.4-6.1 8.6-6.1h11.5v-3.3c0-4.4-3.4-9.5-7.5-11.3-4.5-1.8-7.3-1.8-11.4.4m11.8 3.7c2.6 1.3 4.1 3.3 4.1 5.6 0 .5-4.5.9-10 .9-11.2 0-12.3-.9-6.9-5.4 3.5-3 8.4-3.4 12.8-1.1m21.4-4.1c-4.5 2.1-7.3 7-7.3 13 0 6.6 2.8 11 8.5 13.2 5.3 2 9.8 1.4 13.9-1.9 4-3.2 2.6-5.3-1.7-2.7-5 3.1-11.2 2.7-14.8-.9-5.4-5.4-4.4-6.1 9.1-6.1 13.1 0 12.7.2 11-6.1-2.2-7.8-11.2-11.9-18.7-8.5m11.8 3.6c1 .6 2.6 2.4 3.4 4l1.6 3h-10.6c-6.8 0-10.5-.4-10.5-1.1 0-.6 1.3-2.4 2.9-4 2.3-2.3 3.8-2.9 7.1-2.9 2.3 0 5 .5 6.1 1m53.9-3.8c-1.9.7-4.1 2.5-5 4-1.3 2.5-1.3 3.1 0 5.5 1.3 2.3 2.7 3.1 7.5 4.1 12.7 2.8 13.5 3.1 13.5 5.8 0 1.7-.8 2.7-2.6 3.4-3.8 1.5-10.7 1.2-14.9-.6-3.1-1.3-3.9-1.3-4.6-.2-1.4 2.3 5.7 5.2 12.8 5.3 7.6 0 11.6-2.4 12.1-7.4.6-5.6-2.4-7.4-15.9-9.6-2.1-.3-4.3-1.3-5-2.1-1.1-1.4-1-1.9 1.1-3.6 2-1.7 3.5-1.9 8.5-1.5 3.3.2 6.8.7 7.8 1.2 2.5 1.1 2.2-2.1-.3-3.5-3.2-1.7-11.2-2.1-15-.8m60 12.8c0 11.8.2 14 1.5 14 1.2 0 1.5-1.8 1.5-10.1 0-11.1.9-13.9 4.5-13.9s4.5 2.8 4.5 13.9c0 8.3.3 10.1 1.5 10.1s1.5-1.8 1.5-10.1c0-11.2.9-13.9 4.6-13.9 3.4 0 4.4 3.2 4.4 14.6 0 7.7.3 9.4 1.5 9.4s1.5-1.8 1.4-10.3c-.1-12.4-.7-14.7-4.1-16.7-2.5-1.3-2.9-1.3-5.6.7-3 2.2-3 2.2-4.7.2-2.3-2.5-4.3-2.4-7.2.3l-2.3 2.1v-2.1c0-1.3-.6-2.2-1.5-2.2-1.3 0-1.5 2.2-1.5 14m40.4-12.6c-4.9 2.2-7.7 6.9-7.7 13.2 0 8.2 4.2 13 12 14.1 8.7 1.2 15.3-4.9 15.3-14.2 0-11.1-9.6-17.4-19.6-13.1m13.1 4.8c5 4.4 4.9 12.7-.1 16.7-6 4.7-16.3 1.2-17.8-5.9-.7-3.9 1.4-9.2 4.5-11.4 3.5-2.4 10.2-2.1 13.4.6m53.6-4.4c-5.1 2.5-7.3 6.1-7.4 11.9-.1 9.5 6.3 15.9 15.1 15 3-.3 5.3-1.3 7.2-3.2 3.8-3.6 2.8-5.2-1.4-2.5-5.1 3.1-11.1 2.7-14.7-.9-5.3-5.4-4.4-6.1 8.6-6.1h11.5v-3.3c0-4.4-3.4-9.5-7.5-11.3-4.5-1.8-7.3-1.8-11.4.4m11.8 3.7c2.6 1.3 4.1 3.3 4.1 5.6 0 .5-4.5.9-10 .9-11.2 0-12.3-.9-6.9-5.4 3.5-3 8.4-3.4 12.8-1.1m14.1-4q0 1.5 3 1.5h3v21h-3c-2.3 0-3 .4-3 2 0 1.8.7 2 7.5 2s7.5-.2 7.5-2c0-1.6-.7-2-3-2-2.9 0-3-.1-3-5 0-10.1 4-15 12.2-15 3.5 0 4.8-.4 4.8-1.4 0-3.7-9.3-3-13 .9-3.1 3.3-4 3.2-4-.5 0-2.9-.2-3-4.5-3-3.3 0-4.5.4-4.5 1.5m35 12.5c0 8.7.4 14 1 14s1-2.6 1-5.8c0-11.9 3.8-18.2 10.9-18.2 6 0 7.1 2.2 7.1 14.2 0 8 .3 9.8 1.5 9.8s1.5-1.9 1.5-11.1c0-11 0-11.1-3-14.1-2.8-2.7-3.6-3-7.3-2.5-2.8.4-4.9 1.4-6.4 3.1-2.9 3.4-4.3 3.3-4.3-.4 0-1.7-.4-3-1-3s-1 5.3-1 14m37-12c0 1.6.7 2 3 2h3v20h-3c-2.3 0-3 .4-3 2 0 1.8.7 2 7.5 2s7.5-.2 7.5-2c0-1.6-.7-2-3-2h-3v-24h-4.5c-3.8 0-4.5.3-4.5 2m61.3 1.2c.8 1.8 3.5 8.2 6.2 14.2 4.5 10.4 4.6 10.9 3.3 14.5-1.2 3.3-1.8 3.6-5.6 3.9-2.7.2-4.2.8-4.2 1.7 0 2.9 6.7 3.4 9.9.7 1.6-1.3 17.1-35.4 17.1-37.6 0-.3-.8-.6-1.7-.6-1.3 0-3.1 3.2-6.6 12-2.7 6.6-5.2 11.8-5.7 11.5-.4-.2-2.9-5.6-5.5-12-3.7-8.9-5.2-11.5-6.7-11.5-1.7 0-1.7.3-.5 3.2"
  />
</svg>
